<svg xmlns="http://www.w3.org/2000/svg" xmlns:xlink="http://www.w3.org/1999/xlink" width="62.392" height="888.358" viewBox="0 0 62.392 888.358">
  <defs>
    <linearGradient id="linear-gradient" x1="-4.687" y1="0.502" x2="-3.687" y2="0.502" gradientUnits="objectBoundingBox">
      <stop offset="0" stop-color="#f6f6f6"/>
      <stop offset="0.5" stop-color="#fff"/>
      <stop offset="1" stop-color="#f6f6f6"/>
    </linearGradient>
    <linearGradient id="linear-gradient-2" x1="-4.687" y1="6.649" x2="-3.687" y2="6.649" gradientUnits="objectBoundingBox">
      <stop offset="0" stop-color="#101010"/>
      <stop offset="0.5" stop-color="#282828"/>
      <stop offset="1" stop-color="#101010"/>
    </linearGradient>
    <linearGradient id="linear-gradient-3" x1="-4.687" y1="0.5" x2="-3.687" y2="0.5" xlink:href="#linear-gradient-2"/>
    <linearGradient id="linear-gradient-4" x1="-4.71" y1="0.498" x2="-3.71" y2="0.498" xlink:href="#linear-gradient-2"/>
    <linearGradient id="linear-gradient-5" x1="-0.017" y1="0.5" x2="1.017" y2="0.5" gradientUnits="objectBoundingBox">
      <stop offset="0" stop-color="#181818"/>
      <stop offset="1" stop-color="#3c3c3c"/>
    </linearGradient>
    <linearGradient id="linear-gradient-6" x1="0.164" y1="0.026" x2="0.503" y2="0.923" gradientUnits="objectBoundingBox">
      <stop offset="0" stop-color="#080808"/>
      <stop offset="1" stop-color="#141414"/>
    </linearGradient>
    <linearGradient id="linear-gradient-8" x1="0.164" y1="0.974" x2="0.503" y2="0.077" xlink:href="#linear-gradient-6"/>
    <linearGradient id="linear-gradient-9" x1="-0.273" y1="11.099" x2="0.838" y2="11.099" gradientUnits="objectBoundingBox">
      <stop offset="0" stop-color="#e6e6e6"/>
      <stop offset="1" stop-color="#f9f9f9"/>
    </linearGradient>
    <linearGradient id="linear-gradient-10" x1="-0.285" y1="98.967" x2="0.837" y2="98.967" xlink:href="#linear-gradient-9"/>
    <linearGradient id="linear-gradient-11" x1="-0.341" y1="-10.105" x2="1.035" y2="-10.105" xlink:href="#linear-gradient-9"/>
    <linearGradient id="linear-gradient-12" x1="-0.354" y1="-98.026" x2="1.035" y2="-98.026" xlink:href="#linear-gradient-9"/>
  </defs>
  <g id="g12972" transform="translate(0.199 0.2)">
    <rect id="rect7000" width="44.637" height="698.217" transform="translate(8.654 162.859)" fill="url(#linear-gradient)"/>
    <rect id="rect7661" width="44.636" height="85.364" transform="translate(8.654 276.788)" fill="url(#linear-gradient-2)"/>
    <rect id="rect7565" width="44.637" height="33.734" transform="translate(8.654 827.492)" fill="url(#linear-gradient-3)"/>
    <path id="path6976" d="M679.768,1009.124a2.078,2.078,0,0,1-.188-.547v-.062h8.106l.03.139c.061.281.06.344,0,.456l-.061.105h-7.822l-.059-.105h0Z" transform="translate(-669.045 -136.447)" fill="#f7f7f7"/>
    <path id="path6978" d="M683.558,1009.077a2.687,2.687,0,0,1-.188-.538c0-.024,1.738-.024,4.177-.024h4.177l-.017.072a2.371,2.371,0,0,1-.17.485l-.071.141h-7.831l-.077-.153Z" transform="translate(-663.773 -136.447)" fill="#f7f7f7"/>
    <path id="path6980" d="M687.158,1009.391s.028-.093.062-.179a3.852,3.852,0,0,0,.164-.612l.017-.086h2.1c1.974,0,2.1,0,2.109.045.007.026.021.1.031.165a3.5,3.5,0,0,0,.108.393c.049.151.089.279.089.284H689.5c-1.286,0-2.338,0-2.338-.024Z" transform="translate(-658.502 -136.45)" fill="#f7f7f7"/>
    <path id="path6982" d="M689.6,1009.077a2.687,2.687,0,0,1-.188-.538c0-.024,1.737-.024,4.174-.024,3.112,0,4.174,0,4.174.031a2.357,2.357,0,0,1-.179.525l-.074.146h-7.831l-.077-.153Z" transform="translate(-655.366 -136.447)" fill="#f7f7f7"/>
    <path id="path6984" d="M693.341,1009.151c-.081-.132-.086-.179-.041-.4.024-.11.042-.208.042-.215s1.831-.024,4.069-.024h4.069l-.017.072a2.879,2.879,0,0,1-.184.513l-.065.127h-7.82l-.053-.086Z" transform="translate(-649.996 -136.449)" fill="#f7f7f7"/>
    <path id="path4668-8" d="M678.825,1003.89l44.4.074.024,7.829-1.668,4.187-41.05-.127-1.667-4.191Z" transform="translate(-670.094 -142.881)" fill="url(#linear-gradient-4)"/>
    <g id="g7034" transform="translate(17.054 873.221)">
      <g id="g7036">
        <path id="path7038" d="M450.543,1032.991c-.46-1.139-1.066-2.463-1.671-3.65l-.235-.461.1-.182c.17-.316.561-1,.8-1.4l.084-.139h2.321l.091.151c.2.337.722,1.25.846,1.487l.042.082-.123.237c-.66,1.268-1.32,2.706-1.851,4.031l-.089.222H450.7l-.153-.378h0Z" transform="translate(-448.637 -1026.78)" fill="#333" stroke="rgba(255,255,255,0)" stroke-linecap="round" stroke-linejoin="round" stroke-width="0.4"/>
        <path id="path7040" d="M460.349,1032.831c-.46-1.139-1.066-2.463-1.672-3.65l-.235-.461.1-.182c.17-.316.561-1,.8-1.4l.084-.139h2.321l.091.151c.2.337.722,1.25.846,1.487l.043.081-.123.237c-.66,1.268-1.32,2.706-1.851,4.031l-.089.223H460.5l-.152-.378h0Z" transform="translate(-434.995 -1027.002)" fill="#333" stroke="rgba(255,255,255,0)" stroke-linecap="round" stroke-linejoin="round" stroke-width="0.4"/>
      </g>
      <path id="path7042" d="M454.9,1031.406c.19-.374.546-1.038.791-1.476l.444-.8-.523-.927-.523-.927h-.9c-.767,0-.9-.026-.9-.1s-.074-.093-.389-.079c-.368.026-.4.031-.516.242l-.128.222.673,1.294c.37.712.869,1.727,1.108,2.255a8.275,8.275,0,0,0,.475.964,4.334,4.334,0,0,0,.387-.677Z" transform="translate(-443.601 -1026.868)" fill="#333" stroke="rgba(255,255,255,0)" stroke-linecap="round" stroke-linejoin="round" stroke-width="0.4"/>
      <path id="path7044" d="M456.348,1031.386c-.19-.374-.546-1.038-.791-1.476l-.444-.8.523-.927.523-.927h.9c.767,0,.9-.026.9-.1s.074-.093.389-.079c.368.026.4.031.517.242l.128.222-.673,1.294c-.37.712-.869,1.727-1.108,2.255a8.264,8.264,0,0,1-.475.964,4.351,4.351,0,0,1-.387-.677Z" transform="translate(-439.626 -1026.896)" fill="#333" stroke="rgba(255,255,255,0)" stroke-linecap="round" stroke-linejoin="round" stroke-width="0.4"/>
      <path id="path7046" d="M452.12,1041.439c0-.031.2-.912.226-1.007.414-5.379.844-4.262,2.543-7.526a35.772,35.772,0,0,1,1.8-3.638l.328-.578v-1.5h1.605v1.519l.344.607c.36.635,1.354,2.589,1.584,3.114l.134.306c2.109,5.742.523.7,2.693,8.115.055.25.1.49.1.534,0,.079-.01.079-5.679.079-3.123,0-5.679,0-5.679-.026Z" transform="translate(-443.791 -1026.739)" fill="#333" stroke="rgba(255,255,255,0)" stroke-linecap="round" stroke-linejoin="round" stroke-width="0.4"/>
    </g>
    <path id="path7054" d="M678.814,759.61H723.4" transform="translate(-670.11 -482.713)" fill="none" stroke="#000" stroke-width="0.4"/>
    <path id="path7060" d="M693.084,1009.01H690.65" transform="translate(-653.644 -135.759)" fill="none" stroke="#000" stroke-width="0.4"/>
    <path id="path7062" d="M680.76,1014.33H692.5" transform="translate(-667.403 -128.358)" fill="none" stroke="#000" stroke-width="0.4"/>
    <path id="path7064" d="M682.707,1009.01h2.434" transform="translate(-664.694 -135.759)" fill="none" stroke="#000" stroke-width="0.4"/>
    <path id="path7066" d="M684.779,1010.99q-.5-1-1.053-1.978" transform="translate(-663.277 -135.754)" fill="none" stroke="#000" stroke-width="0.4"/>
    <path id="path7068" d="M683.32,1009.01q-.553.974-1.053,1.977" transform="translate(-665.307 -135.759)" fill="none" stroke="#000" stroke-width="0.4"/>
    <path id="path7070" d="M686.089,1009.01h1.827" transform="translate(-659.989 -135.759)" fill="none" stroke="#000" stroke-width="0.4"/>
    <path id="path7072" d="M688.219,1011.124q-.506-1.032-1.068-2.034" transform="translate(-658.511 -135.649)" fill="none" stroke="#000" stroke-width="0.4"/>
    <path id="path7074" d="M686.413,1009.01q-.285.5-.557,1.012" transform="translate(-660.313 -135.759)" fill="none" stroke="#000" stroke-width="0.4"/>
    <path id="path7076" d="M702.346,1014.33H690.6" transform="translate(-653.712 -128.358)" fill="none" stroke="#000" stroke-width="0.4"/>
    <path id="path7078" d="M694.982,1009.01h-2.434" transform="translate(-651.004 -135.759)" fill="none" stroke="#000" stroke-width="0.4"/>
    <path id="path7080" d="M693.162,1009.01q-.553.974-1.053,1.977" transform="translate(-651.615 -135.759)" fill="none" stroke="#000" stroke-width="0.4"/>
    <path id="path7082" d="M694.62,1010.99q-.5-1-1.053-1.977" transform="translate(-649.587 -135.755)" fill="none" stroke="#000" stroke-width="0.4"/>
    <path id="path7084" d="M691.247,1009.01H689.42" transform="translate(-655.355 -135.759)" fill="none" stroke="#000" stroke-width="0.4"/>
    <path id="path7086" d="M686.853,1009.962a2.486,2.486,0,0,0,.517-1.636" transform="translate(-658.926 -136.711)" fill="none" stroke="#000" stroke-width="0.4"/>
    <path id="path7088" d="M683.376,1009.01h8.314" transform="translate(-663.763 -135.759)" fill="none" stroke="#000" stroke-width="0.4"/>
    <path id="path7090" d="M689.206,1008.33a2.485,2.485,0,0,0,.517,1.636" transform="translate(-655.657 -136.705)" fill="none" stroke="#000" stroke-width="0.4"/>
    <path id="path7092" d="M692.9,1009.962a2.487,2.487,0,0,0,.517-1.636" transform="translate(-650.518 -136.711)" fill="none" stroke="#000" stroke-width="0.4"/>
    <path id="path7094" d="M687.151,1009.09h4.715" transform="translate(-658.512 -135.647)" fill="none" stroke="#000" stroke-width="0.4"/>
    <path id="path7096" d="M686.344,1009.01q.061.1.131.186" transform="translate(-659.634 -135.759)" fill="none" stroke="#000" stroke-width="0.4"/>
    <path id="path7098" d="M689.875,1009.2q.069-.09.13-.187" transform="translate(-654.722 -135.756)" fill="none" stroke="#000" stroke-width="0.4"/>
    <path id="path7100" d="M686.4,1009.09h8.314" transform="translate(-659.559 -135.647)" fill="none" stroke="#000" stroke-width="0.4"/>
    <path id="path7102" d="M689.794,1009.09q-.562,1-1.068,2.034" transform="translate(-656.32 -135.647)" fill="none" stroke="#000" stroke-width="0.4"/>
    <path id="path7104" d="M689.794,1009.09q-.562,1-1.068,2.034" transform="translate(-656.32 -135.647)" fill="none" stroke="#000" stroke-width="0.4"/>
    <path id="path7106" d="M690.731,1009.914q-.243-.453-.5-.9" transform="translate(-654.223 -135.754)" fill="none" stroke="#000" stroke-width="0.4"/>
    <path id="path7108" d="M697.46,711.986v578.659" transform="translate(-644.17 -548.965)" fill="none" stroke="#000" stroke-width="0.401"/>
    <path id="path7110" d="M686.129,1014.33q-.236.988-.423,1.986H697.45q-.187-1-.424-1.986" transform="translate(-660.522 -128.358)" fill="none" stroke="#000" stroke-width="0.4"/>
    <path id="path7112" d="M686.8,1014.975a41.089,41.089,0,0,1,2.03-4.086v-1.8" transform="translate(-658.995 -135.65)" fill="none" stroke="#000" stroke-width="0.4"/>
    <path id="path7114" d="M688.671,1009.09v1.8a41.013,41.013,0,0,1,1.966,3.938" transform="translate(-656.397 -135.647)" fill="none" stroke="#000" stroke-width="0.4"/>
    <path id="path7116" d="M689.274,1016.521a41.074,41.074,0,0,0-3.323-7.513h-2.434a41.053,41.053,0,0,0-4.655,12.712h11.744" transform="translate(-670.044 -135.761)" fill="#333" stroke="#000" stroke-width="0.4"/>
    <path id="path7118" d="M693.057,1009.25a2.49,2.49,0,0,0,.383.708h8.314a2.484,2.484,0,0,0,.517-1.636" transform="translate(-650.296 -136.716)" fill="none" stroke="#000" stroke-width="0.4"/>
    <path id="path7120" d="M692.5,1021.726h11.744a41.057,41.057,0,0,0-4.655-12.713h-2.434a41.057,41.057,0,0,0-3.323,7.513" transform="translate(-651.07 -135.754)" fill="#333" stroke="#000" stroke-width="0.4"/>
    <path id="path7122" d="M687.315,1009.01a41.058,41.058,0,0,0-4.655,12.712H694.4a41.057,41.057,0,0,0-4.655-12.712Z" transform="translate(-664.761 -135.759)" fill="#333" stroke="#000" stroke-width="0.4"/>
    <path id="path7138" d="M678.814,1290.645V711.986" transform="translate(-670.11 -548.965)" fill="none" stroke="#000" stroke-width="0.401"/>
    <path id="path7144" d="M723.4,998.507v19.87a7.171,7.171,0,0,1-1.169,3.608H679.983a7.17,7.17,0,0,1-1.17-3.608V998.507" transform="translate(-670.11 -150.37)" fill="none" stroke="#000" stroke-width="0.4"/>
    <path id="path7171" d="M695.792,1009.01a41.063,41.063,0,0,1,4.655,12.712H688.7a41.057,41.057,0,0,1,4.655-12.712" transform="translate(-656.352 -135.759)" fill="#333" stroke="#000" stroke-width="0.4"/>
    <path id="path7173" d="M689.42,1009.01h8.314" transform="translate(-655.355 -135.759)" fill="none" stroke="#000" stroke-width="0.4"/>
    <path id="path7175" d="M679.365,1008.33a2.485,2.485,0,0,0,.517,1.636H688.2a2.484,2.484,0,0,0,.383-.708" transform="translate(-669.348 -136.705)" fill="none" stroke="#000" stroke-width="0.4"/>
    <path id="path7177" d="M683.162,1008.33a2.485,2.485,0,0,0,.517,1.636" transform="translate(-664.065 -136.705)" fill="none" stroke="#000" stroke-width="0.4"/>
    <path id="path7052" d="M678.814,795.3H723.4" transform="translate(-670.11 -433.058)" fill="none" stroke="#000" stroke-width="0.4"/>
    <g id="g9568" transform="translate(23.425 549.749)">
      <path id="path9570" d="M189.142,941.9h-9.25l-.343.256v8.229h2.561V947.3l.244-.219h6.788c1.714,0,2.517-.461,2.517-1.645v-1.889c0-1.185-.8-1.646-2.518-1.646m0,3.042c0,.557-.369.673-1.172.673h-5.587l-.273-.265v-1.763l.244-.223h5.616c.8,0,1.172.115,1.172.675v.9Z" transform="translate(-178.201 -922.343)" fill="#005288"/>
      <path id="polyline9572" d="M16.015,3.7l2.2,3.228-.122.313H13.223L11.98,8.771h7.253l.5.306,1.126,1.553h2.93L17.369,2.038" transform="translate(-10.431 34.567)" fill="#005288"/>
      <g id="g9574" transform="translate(1.61 74.324)">
        <path id="polyline9576" d="M27.367,7.239V4.956l.264-.228h4.9V3.274H24.764V8.91h11.46V7.463H27.642" transform="translate(-24.764 -0.424)" fill="#005288"/>
        <rect id="rect9578" width="11.582" height="1.599" transform="translate(0 0)" fill="#005288"/>
      </g>
      <path id="path9580" d="M182.408,958.284h9.331c-.144-1.187-.88-1.516-2.748-1.516h-6.682c-2.107,0-2.78.411-2.78,2.006v4.474c0,1.6.672,2.008,2.78,2.008h6.682c1.895,0,2.621-.356,2.67-1.587h-9.253l-.274-.258v-4.955" transform="translate(-178.229 -901.654)" fill="#005288"/>
      <path id="path9582" d="M189.148,937.026H182.36l-.2-.22v-1.452l.2-.154h9.151l.125-.306c-.312-.8-1.119-1.176-2.618-1.176h-6.356c-2.106,0-2.779.411-2.779,2.006v.938c0,1.6.673,2.007,2.779,2.007h6.773l.213.187v1.518l-.173.237h-7.747V940.6H179.7s-.232.116-.223.171c.173,1.115.933,1.432,2.753,1.432h6.922c2.106,0,2.8-.411,2.8-2.008v-1.169c0-1.594-.693-2-2.8-2" transform="translate(-178.308 -933.719)" fill="#005288"/>
      <path id="path9584" d="M183.124,973.03h-3.81l-.207.393,4.231,3.084c.8-.464,1.674-.935,2.622-1.4" transform="translate(-178.816 -879.031)" fill="#005288"/>
      <path id="path9586" d="M182.214,976.456l3.719,2.712h3.857l.16-.359-5.553-4.065q-1.106.812-2.182,1.712" transform="translate(-174.494 -876.646)" fill="#005288"/>
      <path id="path9588" d="M182.724,983.752h-3.447l-.291-.456c2.344-2.263,13.046-10.768,26.977-11.85,0,0-12.186,1.353-23.238,12.307" transform="translate(-178.986 -881.236)" fill="#a7a9ac"/>
    </g>
    <g id="g12454" transform="translate(15.453 384.473)">
      <g id="g12456" transform="translate(4.5 31.321)">
        <rect id="rect12458" width="21.971" height="12.403" fill="#b22234"/>
        <path id="path12460" d="M0,.6H21.971m0,1.908H0M0,4.415H21.971m0,1.908H0M0,8.231H21.971m0,1.908H0" transform="translate(0 0.833)" stroke="#fff" stroke-width="0.385"/>
        <rect id="rect12462" width="8.788" height="6.678" fill="#3c3b6e"/>
        <g id="g12464" transform="translate(0.394 0.286)">
          <g id="g12466">
            <g id="g12468">
              <g id="g12470">
                <g id="g12472">
                  <path id="path12474" d="M.5.12.712.81.165.383H.842L.294.81Z" transform="translate(-0.165 -0.12)" fill="#fff"/>
                  <path id="use12476" d="M.5.12.712.81.165.383H.842L.294.81Z" transform="translate(-0.165 1.216)" fill="#fff"/>
                  <path id="use12478" d="M.5.12.712.81.165.383H.842L.294.81Z" transform="translate(-0.165 2.552)" fill="#fff"/>
                  <path id="use12480" d="M.5.12.712.81.165.383H.842L.294.81Z" transform="translate(-0.165 3.887)" fill="#fff"/>
                </g>
                <path id="use12482" d="M.5.12.712.81.165.383H.842L.294.81Z" transform="translate(-0.165 5.223)" fill="#fff"/>
              </g>
              <g id="use12484" transform="translate(0.732 0.668)">
                <path id="s" d="M.5.12.712.81.165.383H.842L.294.81Z" transform="translate(-0.165 -0.12)" fill="#fff"/>
                <path id="use11040" d="M.5.12.712.81.165.383H.842L.294.81Z" transform="translate(-0.165 1.216)" fill="#fff"/>
                <path id="use11042" d="M.5.12.712.81.165.383H.842L.294.81Z" transform="translate(-0.165 2.552)" fill="#fff"/>
                <path id="use11044" d="M.5.12.712.81.165.383H.842L.294.81Z" transform="translate(-0.165 3.887)" fill="#fff"/>
              </g>
            </g>
            <g id="use12486" transform="translate(1.465)">
              <g id="s5" transform="translate(0)">
                <g id="s4">
                  <path id="s-2" data-name="s" d="M.5.12.712.81.165.383H.842L.294.81Z" transform="translate(-0.165 -0.12)" fill="#fff"/>
                  <path id="use11040-2" data-name="use11040" d="M.5.12.712.81.165.383H.842L.294.81Z" transform="translate(-0.165 1.216)" fill="#fff"/>
                  <path id="use11042-2" data-name="use11042" d="M.5.12.712.81.165.383H.842L.294.81Z" transform="translate(-0.165 2.552)" fill="#fff"/>
                  <path id="use11044-2" data-name="use11044" d="M.5.12.712.81.165.383H.842L.294.81Z" transform="translate(-0.165 3.887)" fill="#fff"/>
                </g>
                <path id="use11046" d="M.5.12.712.81.165.383H.842L.294.81Z" transform="translate(-0.165 5.223)" fill="#fff"/>
              </g>
              <g id="use11048" transform="translate(0.732 0.668)">
                <path id="s-3" data-name="s" d="M.5.12.712.81.165.383H.842L.294.81Z" transform="translate(-0.165 -0.12)" fill="#fff"/>
                <path id="use11040-3" data-name="use11040" d="M.5.12.712.81.165.383H.842L.294.81Z" transform="translate(-0.165 1.216)" fill="#fff"/>
                <path id="use11042-3" data-name="use11042" d="M.5.12.712.81.165.383H.842L.294.81Z" transform="translate(-0.165 2.552)" fill="#fff"/>
                <path id="use11044-3" data-name="use11044" d="M.5.12.712.81.165.383H.842L.294.81Z" transform="translate(-0.165 3.887)" fill="#fff"/>
              </g>
            </g>
          </g>
          <g id="use12488" transform="translate(2.929)">
            <g id="s9" transform="translate(0)">
              <g id="s5-2" data-name="s5">
                <g id="s4-2" data-name="s4">
                  <path id="s-4" data-name="s" d="M.5.12.712.81.165.383H.842L.294.81Z" transform="translate(-0.165 -0.12)" fill="#fff"/>
                  <path id="use11040-4" data-name="use11040" d="M.5.12.712.81.165.383H.842L.294.81Z" transform="translate(-0.165 1.216)" fill="#fff"/>
                  <path id="use11042-4" data-name="use11042" d="M.5.12.712.81.165.383H.842L.294.81Z" transform="translate(-0.165 2.552)" fill="#fff"/>
                  <path id="use11044-4" data-name="use11044" d="M.5.12.712.81.165.383H.842L.294.81Z" transform="translate(-0.165 3.887)" fill="#fff"/>
                </g>
                <path id="use11046-2" data-name="use11046" d="M.5.12.712.81.165.383H.842L.294.81Z" transform="translate(-0.165 5.223)" fill="#fff"/>
              </g>
              <g id="use11048-2" data-name="use11048" transform="translate(0.732 0.668)">
                <path id="s-5" data-name="s" d="M.5.12.712.81.165.383H.842L.294.81Z" transform="translate(-0.165 -0.12)" fill="#fff"/>
                <path id="use11040-5" data-name="use11040" d="M.5.12.712.81.165.383H.842L.294.81Z" transform="translate(-0.165 1.216)" fill="#fff"/>
                <path id="use11042-5" data-name="use11042" d="M.5.12.712.81.165.383H.842L.294.81Z" transform="translate(-0.165 2.552)" fill="#fff"/>
                <path id="use11044-5" data-name="use11044" d="M.5.12.712.81.165.383H.842L.294.81Z" transform="translate(-0.165 3.887)" fill="#fff"/>
              </g>
            </g>
            <g id="use11050" transform="translate(1.465)">
              <g id="s5-3" data-name="s5" transform="translate(0)">
                <g id="s4-3" data-name="s4">
                  <path id="s-6" data-name="s" d="M.5.12.712.81.165.383H.842L.294.81Z" transform="translate(-0.165 -0.12)" fill="#fff"/>
                  <path id="use11040-6" data-name="use11040" d="M.5.12.712.81.165.383H.842L.294.81Z" transform="translate(-0.165 1.216)" fill="#fff"/>
                  <path id="use11042-6" data-name="use11042" d="M.5.12.712.81.165.383H.842L.294.81Z" transform="translate(-0.165 2.552)" fill="#fff"/>
                  <path id="use11044-6" data-name="use11044" d="M.5.12.712.81.165.383H.842L.294.81Z" transform="translate(-0.165 3.887)" fill="#fff"/>
                </g>
                <path id="use11046-3" data-name="use11046" d="M.5.12.712.81.165.383H.842L.294.81Z" transform="translate(-0.165 5.223)" fill="#fff"/>
              </g>
              <g id="use11048-3" data-name="use11048" transform="translate(0.732 0.668)">
                <path id="s-7" data-name="s" d="M.5.12.712.81.165.383H.842L.294.81Z" transform="translate(-0.165 -0.12)" fill="#fff"/>
                <path id="use11040-7" data-name="use11040" d="M.5.12.712.81.165.383H.842L.294.81Z" transform="translate(-0.165 1.216)" fill="#fff"/>
                <path id="use11042-7" data-name="use11042" d="M.5.12.712.81.165.383H.842L.294.81Z" transform="translate(-0.165 2.552)" fill="#fff"/>
                <path id="use11044-7" data-name="use11044" d="M.5.12.712.81.165.383H.842L.294.81Z" transform="translate(-0.165 3.887)" fill="#fff"/>
              </g>
            </g>
          </g>
          <g id="use12490" transform="translate(5.859)">
            <g id="s5-4" data-name="s5" transform="translate(0)">
              <g id="s4-4" data-name="s4">
                <path id="s-8" data-name="s" d="M.5.12.712.81.165.383H.842L.294.81Z" transform="translate(-0.165 -0.12)" fill="#fff"/>
                <path id="use11040-8" data-name="use11040" d="M.5.12.712.81.165.383H.842L.294.81Z" transform="translate(-0.165 1.216)" fill="#fff"/>
                <path id="use11042-8" data-name="use11042" d="M.5.12.712.81.165.383H.842L.294.81Z" transform="translate(-0.165 2.552)" fill="#fff"/>
                <path id="use11044-8" data-name="use11044" d="M.5.12.712.81.165.383H.842L.294.81Z" transform="translate(-0.165 3.887)" fill="#fff"/>
              </g>
              <path id="use11046-4" data-name="use11046" d="M.5.12.712.81.165.383H.842L.294.81Z" transform="translate(-0.165 5.223)" fill="#fff"/>
            </g>
            <g id="use11048-4" data-name="use11048" transform="translate(0.732 0.668)">
              <path id="s-9" data-name="s" d="M.5.12.712.81.165.383H.842L.294.81Z" transform="translate(-0.165 -0.12)" fill="#fff"/>
              <path id="use11040-9" data-name="use11040" d="M.5.12.712.81.165.383H.842L.294.81Z" transform="translate(-0.165 1.216)" fill="#fff"/>
              <path id="use11042-9" data-name="use11042" d="M.5.12.712.81.165.383H.842L.294.81Z" transform="translate(-0.165 2.552)" fill="#fff"/>
              <path id="use11044-9" data-name="use11044" d="M.5.12.712.81.165.383H.842L.294.81Z" transform="translate(-0.165 3.887)" fill="#fff"/>
            </g>
          </g>
          <g id="use12492" transform="translate(7.324)">
            <g id="s4-5" data-name="s4" transform="translate(0)">
              <path id="s-10" data-name="s" d="M.5.12.712.81.165.383H.842L.294.81Z" transform="translate(-0.165 -0.12)" fill="#fff"/>
              <path id="use11040-10" data-name="use11040" d="M.5.12.712.81.165.383H.842L.294.81Z" transform="translate(-0.165 1.216)" fill="#fff"/>
              <path id="use11042-10" data-name="use11042" d="M.5.12.712.81.165.383H.842L.294.81Z" transform="translate(-0.165 2.552)" fill="#fff"/>
              <path id="use11044-10" data-name="use11044" d="M.5.12.712.81.165.383H.842L.294.81Z" transform="translate(-0.165 3.887)" fill="#fff"/>
            </g>
            <path id="use11046-5" data-name="use11046" d="M.5.12.712.81.165.383H.842L.294.81Z" transform="translate(-0.165 5.223)" fill="#fff"/>
          </g>
        </g>
      </g>
      <g id="g12494">
        <g id="g12496" transform="translate(0.349 0)">
          <path id="path12498" d="M-30.858,19.29a21.358,21.358,0,0,1,2.251-1.082c-8.777-4.619-9.268-8.091-11.071-11.744,1.388,4.231,2.547,8.455,8.82,12.826Z" transform="translate(39.678 -6.463)" fill="#a80126" fill-rule="evenodd"/>
          <path id="path12500" d="M-37.9,8.928c3.344,2.8,6.246,4.789,8.387,5.4,2.117-1.13,9.12-1.744,8.968-.15a3.73,3.73,0,0,0-3.312-.118,9.825,9.825,0,0,1,1.938-.012,1.533,1.533,0,0,1-.453.34,5.144,5.144,0,0,1,1.547.553c.289-.028.478-.02.566.069a1.885,1.885,0,0,0-.824.712c1.946.055,4.019.036,4.237,2.089.614-1.818-.484-2.763-2.624-3.176a10.391,10.391,0,0,0-1.171-1.756c-5.849-.327-11.691-.724-17.26-3.946Z" transform="translate(42.15 -3.035)" fill="#a80126" fill-rule="evenodd"/>
        </g>
        <path id="path12502" d="M651.1,654.376v-3.542h2.371a.823.823,0,0,1-.374.33h-1.484v.932h1.324a.588.588,0,0,1-.3.264h-1.025v1.262a1.6,1.6,0,0,1-.513.754Z" transform="translate(-651.1 -634.337)" fill-rule="evenodd"/>
        <path id="path12504" d="M654.973,651.262v2.59h.673v-2.439a1.814,1.814,0,0,0-2.734,0v2.439h.609v-1.432H654a.547.547,0,0,0,.235-.207h-.7v-.942a1.082,1.082,0,0,1,1.442-.01Z" transform="translate(-648.578 -634.397)" fill-rule="evenodd"/>
        <path id="path12506" d="M658.3,653.844H655.57v-2.986h.683V653.6h2.4C658.556,653.691,658.5,653.813,658.3,653.844Z" transform="translate(-644.881 -634.304)" fill-rule="evenodd"/>
        <path id="path12508" d="M659,650.835v.586c-1.1,1.488.773,3.274,2.877,1.965l.159-.033c-1.3,1.473-6.083.277-3.035-2.518Z" transform="translate(-641.497 -634.337)" fill-rule="evenodd"/>
        <path id="path12510" d="M657.816,651.692v1.081c1.049-1.891,2.5-2.832,6.958-1.577C660.5,649.518,658.916,650.4,657.816,651.692Z" transform="translate(-641.756 -635.118)" fill-rule="evenodd"/>
        <path id="path12512" d="M611.341,123.9a1.716,1.716,0,0,0-1.782,1.739c.01,2.258,3.563,2.373,3.564,0A1.668,1.668,0,0,0,611.341,123.9Zm-.008.235c.529-.006,1.061.491,1.065,1.5.01,2.027-2.1,1.981-2.111,0C610.279,124.646,610.8,124.139,611.333,124.133Z" transform="translate(-586.982 -107.635)" fill-rule="evenodd"/>
        <path id="path12514" d="M663.731,651.218v2.691H663.2v-2.824l.533-.258,0,.122a2,2,0,0,1,1.545.565v2.422h-.517v-2.379c-.19-.317-.4-.4-1.027-.4Z" transform="translate(-634.266 -634.348)" fill-rule="evenodd"/>
        <path id="path12516" d="M608.955,126.147c-5.494.025-4.071,4.431-1.034,4.343a2.787,2.787,0,0,0,2.632-1.2c-.593,2.97-2.609,2.971-5.037,3.208a1.434,1.434,0,0,0-.576.564c4.121-.083,7.578-.816,7.477-4.014C612.346,126.808,610.849,126.139,608.955,126.147Zm-.082.533a1.465,1.465,0,1,1-1.809,1.426,1.654,1.654,0,0,1,1.809-1.426Z" transform="translate(-593.408 -104.506)" fill-rule="evenodd"/>
      </g>
    </g>
    <path id="path9116" d="M698.562,795.651l3.065,5.284V851.87l-1.268,8.243v421.811l-2.321,8.817v-80.1l-1.2-3.885v-6.875l1.126-4.2v-38.09l-1.318-4.92v-9.875l1.089-5.081V874.53l-1.046-5.828v-72.93Z" transform="translate(-645.297 -432.574)" fill="#101010" stroke="#000" stroke-linecap="round" stroke-linejoin="round" stroke-width="0.4" fill-rule="evenodd"/>
    <path id="path7050" d="M678.814,1003.94H723.4" transform="translate(-670.11 -142.812)" fill="none" stroke="#000" stroke-width="0.4"/>
    <path id="path7659" d="M678.814,989.937H723.4" transform="translate(-670.11 -162.292)" fill="none" stroke="#000" stroke-width="0.4"/>
    <g id="g8452" transform="translate(3.053 731.463)">
      <rect id="rect6974" width="1.14" height="1.084" transform="translate(4.284 130.598)" fill="#101010"/>
      <path id="path7026" d="M600.221,949.713l-.14.01-.145.024-.145.038-.145.051-.145.07-.149.079-.15.1-.149.112-.154.126-.154.145-.159.159-.159.182-.164.2-.168.219-.164.238-.173.261-.173.285-.177.3-.177.327-.182.345-.182.364-.182.378-.182.387-.177.4-.177.406-.173.406-.168.416-.168.411-.159.411-.149.406-.145.4-.135.4-.131.4-.121.4-.107.4-.1.4-.094.4-.084.4-.061.35-.033.084-.07.182-.065.182-.126.36-.117.346-.112.345-.1.336-.1.332-.094.327-.089.327-.084.322-.084.327-.079.332-.075.336-.075.346-.075.355-.033.182-.037.182-.037.191-.033.191-.037.2-.033.2-.037.205-.033.21-.033.22-.037.219-.014.117,0,.028,0,.014v.024l0,.07-.033,1.074L592.421,973l-.579,17.247-1.149,34.494-1.154,34.494-.574,17.247-.01.266,0,.136v.024h0l0,.029.01.055.024.113.042.22.051.225.051.225.056.225.065.225.065.225.079.225.079.22.094.22.1.22.107.22.121.22.131.215.145.21.154.21.168.21.089.1.094.1.1.1.1.1.1.1.107.1.112.1.117.1.121.093.121.1.126.093.135.093.135.093.14.093.145.089.154.093.154.088.079.038h.155l.019-.024.024-.024.019-.029.019-.029.019-.033.014-.043h0l0-.024,0-.038.01-.074.033-.3.075-.616.07-.621.07-.626.07-.63.07-.64.07-.64.07-.644.07-.654.07-.654.07-.658.14-1.322.14-1.336.14-1.34.14-1.345.29-2.695.14-1.34.149-1.336.145-1.322.075-.658.075-.658.075-.649.079-.649.075-.64.075-.64.079-.63.079-.626.079-.621.079-.616.079-.612.079-.6.084-.6.079-.584.084-.579.084-.574.089-.56.084-.556.084-.542.089-.537.089-.523.089-.514.112-.341.187-.369.261-.388.322-.383.383-.364.434-.327.472-.271.514-.2.537-.107h.56l.574.126.579.266.967,2.527,1.013,2.788,1.009,2.788,1.013,2.788,1.009,2.788,1.013,2.788,1.009,2.788,1.013,2.788,1.009,2.793,1.013,2.788,1.009,2.788,1.013,2.788.257.677.047.083.051.079.056.069.061.069.065.06.066.055.065.052.075.045.07.038.075.038.075.033.079.024.079.024.075.024h.723l.126-.06.126-.117.121-.177.117-.225.112-.271.1-.3.1-.336.089-.359.079-.378.07-.388.056-.392-.458-4.357-1.074-9.126-1.074-9.121-1.074-9.126-1.074-9.121-1.07-9.126-1.074-9.121-1.074-9.126-1.074-9.121-1.069-9.126-1.074-9.121-1.074-9.125-.7-6.179-.01-.6,0-.6,0-.6,0-.6,0-.6,0-.6,0-.6,0-.6,0-.6,0-.6,0-.6-.024-.752-.084-1.167-.089-1.055-.089-.958-.089-.859-.1-.775-.094-.691-.1-.626-.1-.556-.1-.5-.1-.448-.107-.411-.107-.374-.107-.345-.112-.318-.107-.29-.117-.266-.112-.243-.117-.219-.121-.2-.117-.177-.126-.159-.121-.14-.126-.126-.126-.107-.131-.094-.131-.075-.131-.065-.135-.046-.135-.033-.135-.019Z" transform="translate(-588.951 -949.713)" fill="url(#linear-gradient-5)"/>
      <path id="path8389" d="M592.285,1035.125l1.644-15.019.411-4.708,1.457-11.059.224-1.532.785-1.27,1.009-.9,1.009-.448,1.046-.112.71.112.635.486,12.18,33.775.71.635.822.148-.037-.559-18.382-49.429-.9-1.009-.971-.635-1.009.261-.411,1.233-3.848,47.6.934,1.2.934.859Z" transform="translate(-588.365 -902.566)" fill-rule="evenodd" fill="url(#linear-gradient-6)"/>
      <path id="path7126" d="M596.861,956.386l-2.951-3.126" transform="translate(-582.051 -944.779)" fill="none" stroke="#000" stroke-width="0.4"/>
      <path id="path7128" d="M597.291,953.259l-5.811.019" transform="translate(-585.432 -944.78)" fill="none" stroke="#000" stroke-width="0.4"/>
      <path id="path7130" d="M591.391,1017.178l.417-57.673" transform="translate(-585.556 -936.091)" fill="none" stroke="#000" stroke-width="0.4"/>
      <path id="path7132" d="M591.565,963.574l5.166-6.995" transform="translate(-585.314 -940.161)" fill="none" stroke="#000" stroke-width="0.4"/>
      <path id="path7134" d="M593,963.225l-2.468-6.394" transform="translate(-586.749 -939.811)" fill="none" stroke="#000" stroke-width="0.4"/>
      <path id="path7136" d="M593.726,961.2l.441-7.939" transform="translate(-582.307 -944.779)" fill="none" stroke="#000" stroke-linecap="round" stroke-width="0.4"/>
      <path id="path7140" d="M590.7,1004.25h1.468" transform="translate(-586.517 -873.844)" fill="none" stroke="#000" stroke-width="0.4"/>
      <path id="path7142" d="M590.625,1004.91h1.647" transform="translate(-586.621 -872.926)" fill="none" stroke="#000" stroke-width="0.4"/>
      <path id="path7150" d="M589.382,1032.732l.283-3.591.283-3.591.283-3.591.283-3.591.283-3.591.283-3.591.283-3.591.283-3.591.283-3.591.283-3.591.283-3.591.283-3.591.283-3.591.119-1.139.079-.285.094-.245.107-.206.119-.17.129-.136.138-.1.145-.074.151-.045.154-.024h.156l.157.024.156.043.154.06.151.076.147.091.143.1.14.112.136.125.132.131.127.139.123.144.118.148.114.151.109.153.1.153.423,1.052,1.394,3.752,1.394,3.752,1.394,3.752,1.394,3.753,1.394,3.752,1.394,3.752,1.394,3.752,1.394,3.752,1.394,3.752,1.394,3.752,1.394,3.752,1.394,3.752,1.394,3.752" transform="translate(-588.35 -902.541)" fill="none" stroke="#000" stroke-width="0.4"/>
      <path id="path8391" d="M600.221,949.713l-.14.01-.145.024-.145.038-.145.051-.145.07-.149.079-.15.1-.149.112-.154.126-.154.145-.159.159-.159.182-.164.2-.168.219-.164.238-.173.261-.173.285-.177.3-.177.327-.182.345-.182.364-.182.378-.182.387-.177.4-.177.406-.173.406-.168.416-.168.411-.159.411-.149.406-.145.4-.135.4-.131.4-.121.4-.107.4-.1.4-.094.4-.084.4-.061.35-.033.084-.07.182-.065.182-.126.36-.117.346-.112.345-.1.336-.1.332-.094.327-.089.327-.084.322-.084.327-.079.332-.075.336-.075.346-.075.355-.033.182-.037.182-.037.191-.033.191-.037.2-.033.2-.037.205-.033.21-.033.22-.037.219-.014.117,0,.028,0,.014v.024l0,.07-.033,1.074L592.421,973l-.579,17.247-1.149,34.494-1.154,34.494-.574,17.247-.01.266,0,.136v.024h0l0,.029.01.055.024.113.042.22.051.225.051.225.056.225.065.225.065.225.079.225.079.22.094.22.1.22.107.22.121.22.131.215.145.21.154.21.168.21.089.1.094.1.1.1.1.1.1.1.107.1.112.1.117.1.121.093.121.1.126.093.135.093.135.093.14.093.145.089.154.093.154.088.079.038h.155l.019-.024.024-.024.019-.029.019-.029.019-.033.014-.043h0l0-.024,0-.038.01-.074.033-.3.075-.616.07-.621.07-.626.07-.63.07-.64.07-.64.07-.644.07-.654.07-.654.07-.658.14-1.322.14-1.336.14-1.34.14-1.345.29-2.695.14-1.34.149-1.336.145-1.322.075-.658.075-.658.075-.649.079-.649.075-.64.075-.64.079-.63.079-.626.079-.621.079-.616.079-.612.079-.6.084-.6.079-.584.084-.579.084-.574.089-.56.084-.556.084-.542.089-.537.089-.523.089-.514.112-.341.187-.369.261-.388.322-.383.383-.364.434-.327.472-.271.514-.2.537-.107h.56l.574.126.579.266.967,2.527,1.013,2.788,1.009,2.788,1.013,2.788,1.009,2.788,1.013,2.788,1.009,2.788,1.013,2.788,1.009,2.793,1.013,2.788,1.009,2.788,1.013,2.788.257.677.047.083.051.079.056.069.061.069.065.06.066.055.065.052.075.045.07.038.075.038.075.033.079.024.079.024.075.024h.723l.126-.06.126-.117.121-.177.117-.225.112-.271.1-.3.1-.336.089-.359.079-.378.07-.388.056-.392-.458-4.357-1.074-9.126-1.074-9.121-1.074-9.126-1.074-9.121-1.07-9.126-1.074-9.121-1.074-9.126-1.074-9.121-1.069-9.126-1.074-9.121-1.074-9.125-.7-6.179-.01-.6,0-.6,0-.6,0-.6,0-.6,0-.6,0-.6,0-.6,0-.6,0-.6,0-.6-.024-.752-.084-1.167-.089-1.055-.089-.958-.089-.859-.1-.775-.094-.691-.1-.626-.1-.556-.1-.5-.1-.448-.107-.411-.107-.374-.107-.345-.112-.318-.107-.29-.117-.266-.112-.243-.117-.219-.121-.2-.117-.177-.126-.159-.121-.14-.126-.126-.126-.107-.131-.094-.131-.075-.131-.065-.135-.046-.135-.033-.135-.019Z" transform="translate(-588.951 -949.713)" fill="none" stroke="#000" stroke-width="0.4"/>
    </g>
    <g id="g8480" transform="translate(58.942 864.132) rotate(180)">
      <rect id="rect8454" width="1.14" height="1.084" transform="translate(4.284 0.988)" fill="#101010"/>
      <path id="path8456" d="M11.271,132.593l-.14-.01-.145-.024-.145-.038-.145-.051-.145-.07-.149-.079-.15-.1-.149-.112-.154-.126-.154-.145-.159-.159-.159-.182-.164-.2-.168-.219-.164-.238-.173-.261-.173-.285-.177-.3-.177-.327-.182-.345-.182-.364-.182-.378-.182-.387-.177-.4-.177-.406-.173-.406-.168-.416-.168-.411-.159-.411-.149-.406-.145-.4-.135-.4-.131-.4-.121-.4-.107-.4-.1-.4-.094-.4-.084-.4-.061-.35-.033-.084-.07-.182-.065-.182-.126-.36-.117-.346-.112-.345-.1-.336-.1-.332-.094-.327-.089-.327-.084-.322-.084-.327-.079-.332-.075-.336-.075-.346-.075-.355-.033-.182-.037-.182-.037-.191-.033-.191-.037-.2-.033-.2-.037-.205-.033-.21-.033-.22-.037-.219-.014-.117,0-.028,0-.014v-.024l0-.07-.033-1.074-.145-4.315L2.891,92.059,1.742,57.564.589,23.07.014,5.823,0,5.557,0,5.42V5.4H0l0-.029.01-.055L.038,5.2.08,4.98l.051-.225.051-.225.056-.225L.3,4.081.37,3.857l.079-.225.079-.22.094-.22.1-.22.107-.22.121-.22.131-.215.145-.21.154-.21.168-.21.089-.1.094-.1.1-.1.1-.1.1-.1.107-.1.112-.1.117-.1L2.49.788l.121-.1L2.738.6,2.873.5,3.008.411l.14-.093L3.293.229,3.447.135,3.6.047,3.681.009h.155l.019.024.024.024L3.9.085l.019.029.019.033.014.043h0l0,.024,0,.038.01.074.033.3.075.616.07.621.07.626.07.63.07.64.07.64.07.644.07.654.07.654.07.658.14,1.322.14,1.336.14,1.34.14,1.345.29,2.695.14,1.34.149,1.336L6,19.05l.075.658.075.658.075.649.079.649.075.64.075.64.079.63.079.626.079.621.079.616.079.612.079.6.084.6.079.584.084.579.084.574.089.56.084.556.084.542.089.537.089.523.089.514.112.341.187.369.261.388.322.383.383.364.434.327.472.271.514.2.537.107h.56l.574-.126.579-.266.967-2.527L14.7,29.259l1.009-2.788,1.013-2.788,1.009-2.788,1.013-2.788,1.009-2.788,1.013-2.788,1.009-2.793,1.013-2.788,1.009-2.788,1.013-2.788L25.065.7l.047-.083.051-.079.056-.069.061-.069.065-.06L25.41.28l.065-.052L25.55.182l.07-.038.075-.038.075-.033.079-.024.079-.024L26,0h.723l.126.06.126.117L27.1.354l.117.225.112.271.1.3.1.336.089.359.079.378.07.388.056.392-.458,4.357L26.292,16.49l-1.074,9.121-1.074,9.126-1.074,9.121L22,52.983,20.926,62.1,19.852,71.23l-1.074,9.121-1.069,9.126L16.634,98.6l-1.074,9.125-.7,6.179-.01.6,0,.6,0,.6,0,.6,0,.6,0,.6,0,.6,0,.6,0,.6,0,.6,0,.6-.024.752-.084,1.167-.089,1.055-.089.958-.089.859-.1.775-.094.691-.1.626-.1.556-.1.5-.1.448-.107.411-.107.374-.107.345-.112.318-.107.29-.117.266-.112.243-.117.219-.121.2-.117.177-.126.159-.121.14-.126.126-.126.107-.131.094-.131.075-.131.065-.135.046-.135.033-.135.019Z" transform="translate(0 0.076)" fill="url(#linear-gradient-5)"/>
      <path id="path8458" d="M2.914.111,4.558,15.13l.411,4.708L6.426,30.9l.224,1.532.785,1.27,1.009.9,1.009.448,1.046.112.71-.112.635-.486L24.024.783l.71-.635L25.555,0l-.037.559L7.136,49.989,6.239,51l-.971.635-1.009-.261-.411-1.233L0,2.539l.934-1.2L1.868.485Z" transform="translate(1.006)" fill-rule="evenodd" fill="url(#linear-gradient-8)"/>
      <path id="path8460" d="M2.951,0,0,3.126" transform="translate(11.859 121.063)" fill="none" stroke="#000" stroke-width="0.4"/>
      <path id="path8462" d="M5.811.019,0,0" transform="translate(6.047 124.171)" fill="none" stroke="#000" stroke-width="0.4"/>
      <path id="path8464" d="M0,0,.417,57.673" transform="translate(5.835 51.583)" fill="none" stroke="#000" stroke-width="0.4"/>
      <path id="path8466" d="M0,0,5.166,6.995" transform="translate(6.252 109.255)" fill="none" stroke="#000" stroke-width="0.4"/>
      <path id="path8468" d="M2.468,0,0,6.394" transform="translate(3.783 109.255)" fill="none" stroke="#000" stroke-width="0.4"/>
      <path id="path8470" d="M0,0,.441,7.939" transform="translate(11.419 116.249)" fill="none" stroke="#000" stroke-linecap="round" stroke-width="0.4"/>
      <path id="path8472" d="M0,0H1.468" transform="translate(4.183 2.263)" fill="none" stroke="#000" stroke-width="0.4"/>
      <path id="path8474" d="M0,0H1.647" transform="translate(4.004 0.685)" fill="none" stroke="#000" stroke-width="0.4"/>
      <path id="path8476" d="M0,2.376.283,5.967.566,9.558l.283,3.591.283,3.591.283,3.591L1.7,23.922l.283,3.591L2.265,31.1,2.548,34.7l.283,3.591.283,3.591L3.4,45.468l.283,3.591L3.8,50.2l.079.285.094.245.107.206.119.17.129.136.138.1.145.074.151.045.154.024h.156l.157-.024.156-.043.154-.06.151-.076.147-.091.143-.1.14-.112.136-.125.132-.131.127-.139.123-.144.118-.148.114-.151.109-.153.1-.153.423-1.052L8.9,45.029l1.394-3.752,1.394-3.752,1.394-3.753,1.394-3.752,1.394-3.752,1.394-3.752,1.394-3.752,1.394-3.752,1.394-3.752L22.836,7.5,24.23,3.752,25.623,0" transform="translate(1.032 0.102)" fill="none" stroke="#000" stroke-width="0.4"/>
      <path id="path8478" d="M11.271,132.593l-.14-.01-.145-.024-.145-.038-.145-.051-.145-.07-.149-.079-.15-.1-.149-.112-.154-.126-.154-.145-.159-.159-.159-.182-.164-.2-.168-.219-.164-.238-.173-.261-.173-.285-.177-.3-.177-.327-.182-.345-.182-.364-.182-.378-.182-.387-.177-.4-.177-.406-.173-.406-.168-.416-.168-.411-.159-.411-.149-.406-.145-.4-.135-.4-.131-.4-.121-.4-.107-.4-.1-.4-.094-.4-.084-.4-.061-.35-.033-.084-.07-.182-.065-.182-.126-.36-.117-.346-.112-.345-.1-.336-.1-.332-.094-.327-.089-.327-.084-.322-.084-.327-.079-.332-.075-.336-.075-.346-.075-.355-.033-.182-.037-.182-.037-.191-.033-.191-.037-.2-.033-.2-.037-.205-.033-.21-.033-.22-.037-.219-.014-.117,0-.028,0-.014v-.024l0-.07-.033-1.074-.145-4.315L2.891,92.059,1.742,57.564.589,23.07.014,5.823,0,5.557,0,5.42V5.4H0l0-.029.01-.055L.038,5.2.08,4.98l.051-.225.051-.225.056-.225L.3,4.081.37,3.857l.079-.225.079-.22.094-.22.1-.22.107-.22.121-.22.131-.215.145-.21.154-.21.168-.21.089-.1.094-.1.1-.1.1-.1.1-.1.107-.1.112-.1.117-.1L2.49.788l.121-.1L2.738.6,2.873.5,3.008.411l.14-.093L3.293.229,3.447.135,3.6.047,3.681.009h.155l.019.024.024.024L3.9.085l.019.029.019.033.014.043h0l0,.024,0,.038.01.074.033.3.075.616.07.621.07.626.07.63.07.64.07.64.07.644.07.654.07.654.07.658.14,1.322.14,1.336.14,1.34.14,1.345.29,2.695.14,1.34.149,1.336L6,19.05l.075.658.075.658.075.649.079.649.075.64.075.64.079.63.079.626.079.621.079.616.079.612.079.6.084.6.079.584.084.579.084.574.089.56.084.556.084.542.089.537.089.523.089.514.112.341.187.369.261.388.322.383.383.364.434.327.472.271.514.2.537.107h.56l.574-.126.579-.266.967-2.527L14.7,29.259l1.009-2.788,1.013-2.788,1.009-2.788,1.013-2.788,1.009-2.788,1.013-2.788,1.009-2.793,1.013-2.788,1.009-2.788,1.013-2.788L25.065.7l.047-.083.051-.079.056-.069.061-.069.065-.06L25.41.28l.065-.052L25.55.182l.07-.038.075-.038.075-.033.079-.024.079-.024L26,0h.723l.126.06.126.117L27.1.354l.117.225.112.271.1.3.1.336.089.359.079.378.07.388.056.392-.458,4.357L26.292,16.49l-1.074,9.121-1.074,9.126-1.074,9.121L22,52.983,20.926,62.1,19.852,71.23l-1.074,9.121-1.069,9.126L16.634,98.6l-1.074,9.125-.7,6.179-.01.6,0,.6,0,.6,0,.6,0,.6,0,.6,0,.6,0,.6,0,.6,0,.6,0,.6-.024.752-.084,1.167-.089,1.055-.089.958-.089.859-.1.775-.094.691-.1.626-.1.556-.1.5-.1.448-.107.411-.107.374-.107.345-.112.318-.107.29-.117.266-.112.243-.117.219-.121.2-.117.177-.126.159-.121.14-.126.126-.126.107-.131.094-.131.075-.131.065-.135.046-.135.033-.135.019Z" transform="translate(0 0.076)" fill="none" stroke="#000" stroke-width="0.4"/>
    </g>
    <g id="g8572" transform="translate(0)">
      <g id="g7006" transform="translate(0.291 0.415)">
        <g id="g7008" transform="translate(0)">
          <path id="path7010" d="M224.141,253.089c-.155-2.383-.209-23.544-.12-47.025.177-46.4.149-45.812,2.689-57.678a68.84,68.84,0,0,1,17.779-34.214c3.7-3.969,6.662-5.949,8.913-5.959l.951,0V257.421h-29.93l-.282-4.333Z" transform="translate(-223.978 -108.207)" fill="url(#linear-gradient-9)"/>
          <path id="path7012" d="M232.317,185.653c-.226-.291-1.8-3.1-3.492-6.235s-3.45-6.325-3.9-7.08l-.821-1.374h30.081v15.217H243.455C235.374,186.181,232.626,186.051,232.317,185.653Z" transform="translate(-223.806 -20.904)" fill="url(#linear-gradient-10)"/>
        </g>
        <g id="g7014" transform="translate(61.531 165.278) rotate(180)">
          <path id="path7016" d="M.163,4.332C.008,6.715-.046,27.877.043,51.358c.177,46.4.149,45.812,2.689,57.678A68.84,68.84,0,0,0,20.511,143.25c3.7,3.969,6.662,5.949,8.913,5.959l.951,0V0H.445L.163,4.333Z" transform="translate(0 16.064)" fill="url(#linear-gradient-11)"/>
          <path id="path7018" d="M8.215.528c-.226.291-1.8,3.1-3.492,6.235s-3.45,6.325-3.9,7.08L0,15.217H30.081V0H19.354C11.273,0,8.525.13,8.215.528Z" transform="translate(0.295 0)" fill="url(#linear-gradient-12)"/>
        </g>
      </g>
      <path id="path7048" d="M492.642,731.219h44.586" transform="translate(-483.938 -565.25)" fill="none" stroke="#000" stroke-width="0.4"/>
      <path id="path7056" d="M489,724.544h61.991" transform="translate(-489.002 -574.535)" fill="none" stroke="#000" stroke-width="0.4"/>
      <path id="path7058" d="M497.705,827.779l-.931-1.707-.931-1.707-.931-1.707-.931-1.707-.931-1.707-.931-1.707-.931-1.707-.931-1.707-.931-1.707L489,805.568v-77.1l.035-7.152.119-1.267.121-1.267.124-1.267.129-1.267.135-1.267.142-1.267.151-1.267.161-1.268.173-1.268.186-1.268.2-1.268.214-1.267.229-1.265.244-1.263.26-1.26.276-1.256.293-1.251.311-1.245.329-1.239.348-1.232.367-1.224.386-1.216.407-1.207.427-1.2.449-1.186.47-1.175.493-1.162.516-1.15.538-1.137.561-1.125.583-1.113.605-1.1.627-1.091.649-1.081.671-1.071.692-1.062.713-1.053.734-1.045.755-1.037.775-1.03.8-1.023.816-1.016.836-1.011.855-1.005.875-1,.894-1,.917-.979.945-.941.978-.883,1.016-.8,1.06-.7,1.109-.583,1.164-.441,1.224-.281,1.292-.157h1.351l1.293.156,1.224.28,1.164.44,1.11.582,1.061.7,1.017.8.978.882.945.941.917.978.894,1,.875,1,.855,1.005.835,1.011.815,1.016.8,1.023.775,1.03.754,1.037.734,1.045.713,1.053.692,1.062.671,1.071.649,1.081.628,1.091.606,1.1.584,1.113.562,1.125.54,1.137.518,1.149.5,1.162.473,1.174.452,1.186.43,1.2.41,1.206.389,1.215.369,1.224.35,1.232.331,1.239.312,1.245.294,1.251.276,1.255.259,1.26.242,1.263.225,1.266.209,1.268.194,1.269.179,1.269.164,1.269.151,1.269.14,1.269.13,1.268.122,1.268.115,1.268.11,1.268.106,1.268.1,1.268.031,7.153v77.1l-.327,6.849-.931,1.707-.931,1.707-.931,1.707-.931,1.707-.931,1.707-.931,1.707-.931,1.707-.931,1.707-.931,1.707" transform="translate(-489.001 -661.809)" fill="none" stroke="#000" stroke-width="0.4"/>
      <path id="path7124" d="M501.965,827.778V661.81" transform="translate(-470.969 -661.808)" fill="none" stroke="#000" stroke-width="0.4"/>
    </g>
    <g id="g5116" transform="translate(6.732 348.509)">
      <g id="g4962" transform="translate(32.776)">
        <path id="path4347" d="M697.188,789.992l1.956.915.532,2.143-1.38,1.772-2.565.132-1.458-1.618.367-2,1.041-1.21Z" transform="translate(-688.109 -788.955)" fill="#1a1a1a" fill-rule="evenodd"/>
        <path id="path4343" d="M696.519,792.248l-1.258-.159-3.1,3.809-.048,2.222-.387,1.852.484,2.01-.436,2.222.29,1.852-.339,1.64.484,1.64-.436,1.957.194,1.323-.145,1.958,1.549.476-.049-18.939Z" transform="translate(-691.653 -786.037)" fill="#474747" fill-rule="evenodd"/>
        <path id="path4345" d="M692.4,816.454l14.033-.075v-19l-4.107-6.21-1.652,2.318-2.167.139-.884-.846-1.32-.639-.684,1.571-3.217,3.666Z" transform="translate(-690.722 -787.323)" fill="#999" fill-rule="evenodd"/>
        <path id="path4275" d="M692.435,797.433V816.24h13.843l-13.84-18.809,3.113-3.889.914-2.385" transform="translate(-690.668 -787.334)" fill="none" stroke="#000" stroke-linecap="round" stroke-linejoin="round" stroke-width="0.383" fill-rule="evenodd"/>
        <path id="path4277" d="M692.44,795.6,703.27,810" transform="translate(-690.661 -781.151)" fill="none" stroke="#000" stroke-linecap="round" stroke-linejoin="round" stroke-width="0.383" fill-rule="evenodd"/>
        <path id="path4279" d="M700.422,807.75l-7.987-10.528" transform="translate(-690.668 -778.897)" fill="none" stroke="#000" stroke-linecap="round" stroke-linejoin="round" stroke-width="0.383" fill-rule="evenodd"/>
        <path id="path4281" d="M697.808,805.42l-5.373-6.56" transform="translate(-690.668 -776.619)" fill="none" stroke="#000" stroke-linecap="round" stroke-linejoin="round" stroke-width="0.383" fill-rule="evenodd"/>
        <path id="path4283" d="M694.952,803.494l-2.517-3.174" transform="translate(-690.668 -774.588)" fill="none" stroke="#000" stroke-linecap="round" stroke-linejoin="round" stroke-width="0.383" fill-rule="evenodd"/>
        <path id="path4285" d="M699.812,815.019V796.133l-2.729-4.127" transform="translate(-684.203 -786.154)" fill="none" stroke="#000" stroke-linecap="round" stroke-linejoin="round" stroke-width="0.383" fill-rule="evenodd"/>
        <path id="path4287" d="M692.453,812.616l13.759-18.854" transform="translate(-690.643 -783.71)" fill="none" stroke="#000" stroke-linecap="round" stroke-linejoin="round" stroke-width="0.383" fill-rule="evenodd"/>
        <path id="path4289" d="M704.53,795.6,693.7,810" transform="translate(-688.909 -781.151)" fill="none" stroke="#000" stroke-linecap="round" stroke-linejoin="round" stroke-width="0.383" fill-rule="evenodd"/>
        <path id="path4291" d="M694.854,807.75l7.986-10.528" transform="translate(-687.303 -778.897)" fill="none" stroke="#000" stroke-linecap="round" stroke-linejoin="round" stroke-width="0.383" fill-rule="evenodd"/>
        <path id="path4293" d="M695.985,805.4l5.339-6.523" transform="translate(-685.73 -776.597)" fill="none" stroke="#000" stroke-linecap="round" stroke-linejoin="round" stroke-width="0.383" fill-rule="evenodd"/>
        <path id="path4295" d="M697.808,805.42l-5.373-6.56" transform="translate(-690.668 -776.619)" fill="none" stroke="#000" stroke-linecap="round" stroke-linejoin="round" stroke-width="0.383" fill-rule="evenodd"/>
        <path id="path4297" d="M697.159,803.494l2.517-3.174" transform="translate(-684.096 -774.588)" fill="none" stroke="#000" stroke-linecap="round" stroke-linejoin="round" stroke-width="0.383" fill-rule="evenodd"/>
        <path id="path4299" d="M692.453,810.243l12.458-17.357" transform="translate(-690.643 -784.929)" fill="none" stroke="#000" stroke-linecap="round" stroke-linejoin="round" stroke-width="0.383" fill-rule="evenodd"/>
        <path id="path4301" d="M692.424,806.8l9.841-14.025" transform="translate(-690.683 -785.08)" fill="none" stroke="#000" stroke-linecap="round" stroke-linejoin="round" stroke-width="0.383" fill-rule="evenodd"/>
        <path id="path4303" d="M705.36,810.03l-12.27-17.058" transform="translate(-689.758 -784.809)" fill="none" stroke="#000" stroke-linecap="round" stroke-linejoin="round" stroke-width="0.383" fill-rule="evenodd"/>
        <path id="path4305" d="M703.761,806.444l-9.522-13.57" transform="translate(-688.159 -784.946)" fill="none" stroke="#000" stroke-linecap="round" stroke-linejoin="round" stroke-width="0.383" fill-rule="evenodd"/>
        <path id="path4307" d="M692.415,804.914l7.024-10.017,2.975-3.623" transform="translate(-690.696 -787.171)" fill="none" stroke="#000" stroke-linecap="round" stroke-linejoin="round" stroke-width="0.383" fill-rule="evenodd"/>
        <path id="path4309" d="M704,805.1l-6.9-10.092-2.993-3.866" transform="translate(-688.344 -787.356)" fill="none" stroke="#000" stroke-linecap="round" stroke-linejoin="round" stroke-width="0.383" fill-rule="evenodd"/>
        <path id="path4311" d="M692.435,798.864l4.308-5.978" transform="translate(-690.668 -784.929)" fill="none" stroke="#000" stroke-linecap="round" stroke-linejoin="round" stroke-width="0.383" fill-rule="evenodd"/>
        <path id="path4313" d="M700.513,798.957l-3.969-6.176" transform="translate(-684.952 -785.075)" fill="none" stroke="#000" stroke-linecap="round" stroke-linejoin="round" stroke-width="0.383" fill-rule="evenodd"/>
        <path id="path4317" d="M697.9,793.18l-.569-.04-.786,1.759.211-1.857-.06-1.783Z" transform="translate(-684.945 -787.193)" fill="#474747" stroke="#000" stroke-linecap="round" stroke-linejoin="round" stroke-width="0.383" fill-rule="evenodd"/>
        <path id="path4319" d="M693.733,793.52l.46.053.75,1.706-.254-2.1-.024-2.01Z" transform="translate(-688.862 -787.323)" fill="#474747" stroke="#000" stroke-linecap="round" stroke-linejoin="round" stroke-width="0.383" fill-rule="evenodd"/>
        <path id="path4321" d="M695.832,791.237v1.7l-.3.028-.582.561,1.01,1.347,1.249-1.216-.539-.645-.3-.047-.01-1.74Z" transform="translate(-687.169 -787.236)" fill="#474747" stroke="#000" stroke-linecap="round" stroke-linejoin="round" stroke-width="0.383" fill-rule="evenodd"/>
        <path id="path4323" d="M695.964,792.229l-1.78.187" transform="translate(-688.234 -785.843)" fill="none" stroke="#000" stroke-linecap="round" stroke-linejoin="round" stroke-width="0.383" fill-rule="evenodd"/>
        <path id="path4325" d="M695.909,792.229l1.677.168" transform="translate(-685.835 -785.843)" fill="none" stroke="#000" stroke-linecap="round" stroke-linejoin="round" stroke-width="0.383" fill-rule="evenodd"/>
        <path id="path4327" d="M696.657,792.184l-1.355-.106a3.611,3.611,0,0,1-.557,1.058,4.8,4.8,0,0,1-1.234.661,2.306,2.306,0,0,1-.218,1.032,5.208,5.208,0,0,1-1.258.979,8.448,8.448,0,0,1,.266,1.957,9.072,9.072,0,0,1-.6,1.957,7.438,7.438,0,0,1,.581,2.037,6.477,6.477,0,0,1-.557,1.9,10.988,10.988,0,0,1,.46,2.169,8.08,8.08,0,0,1-.387,1.878,7,7,0,0,1,.484,1.931,5.727,5.727,0,0,1-.581,1.719,6.308,6.308,0,0,1,.46,1.693,4.715,4.715,0,0,1-.46,1.455l1.718.5" transform="translate(-691.696 -786.054)" fill="none" stroke="#000" stroke-linecap="round" stroke-linejoin="round" stroke-width="0.383" fill-rule="evenodd"/>
        <path id="path4329" d="M691.848,793.638l1.283.291" transform="translate(-691.485 -783.883)" fill="none" stroke="#000" stroke-linecap="round" stroke-linejoin="round" stroke-width="0.383" fill-rule="evenodd"/>
        <path id="path4331" d="M693.182,793.011l-.171,3.7" transform="translate(-689.866 -784.755)" fill="none" stroke="#000" stroke-linecap="round" stroke-linejoin="round" stroke-width="0.383" fill-rule="evenodd"/>
        <path id="path4333" d="M694.328,792.948l-.171,3.479" transform="translate(-688.273 -784.843)" fill="none" stroke="#000" stroke-linecap="round" stroke-linejoin="round" stroke-width="0.383" fill-rule="evenodd"/>
        <path id="path4335" d="M696.552,792.855l-.034,3.7" transform="translate(-684.989 -784.972)" fill="none" stroke="#000" stroke-linecap="round" stroke-linejoin="round" stroke-width="0.383" fill-rule="evenodd"/>
        <path id="path4337" d="M697.663,792.933v3.741" transform="translate(-683.395 -784.864)" fill="none" stroke="#000" stroke-linecap="round" stroke-linejoin="round" stroke-width="0.383" fill-rule="evenodd"/>
        <path id="path4923" d="M693.84,793.5l1.158-.037.187-1.345L695.97,791l1.42-.411,1.009-.149-1.158-.859h-1.756l-1.2.971-.448,1.607Z" transform="translate(-688.714 -789.533)" fill="#4d4d4d" fill-rule="evenodd"/>
        <path id="path4341" d="M698.947,790.744a9.876,9.876,0,0,0-1.554-1,3.561,3.561,0,0,0-1.452-.159,2.354,2.354,0,0,0-1.21.476,2.48,2.48,0,0,0-.629,1.058,5.642,5.642,0,0,0-.242,1.375c-.046.439-.048,1.323-.048,1.323l1.113,1.005" transform="translate(-688.753 -789.558)" fill="none" stroke="#000" stroke-linecap="round" stroke-linejoin="round" stroke-width="0.383" fill-rule="evenodd"/>
        <path id="path4339" d="M694.318,792.716a4.553,4.553,0,0,1,.194-1.217,2.7,2.7,0,0,1,1.016-1.27,2.8,2.8,0,0,1,1.307-.212,3.392,3.392,0,0,1,1.307.106,2.246,2.246,0,0,1,1.016.741,2.3,2.3,0,0,1,.29.847c.1.433.194,1.323.194,1.323" transform="translate(-688.049 -788.939)" fill="none" stroke="#000" stroke-linecap="round" stroke-linejoin="round" stroke-width="0.383" fill-rule="evenodd"/>
      </g>
      <g id="g5038" transform="translate(15.706 29.131) rotate(180)">
        <path id="path4964" d="M2.914,4.962,4.87,4.047,5.4,1.9,4.023.132,1.458,0,0,1.618l.367,2,1.041,1.21Z" transform="translate(6.165 23.132)" fill="#1a1a1a" fill-rule="evenodd"/>
        <path id="path4966" d="M4.792,22.8l-1.258.159-3.1-3.809L.387,16.929,0,15.077l.484-2.01L.048,10.845l.29-1.852L0,7.354l.484-1.64L.048,3.756.242,2.434.1.476,1.646,0,1.6,18.939Z" transform="translate(0.074 0.118)" fill="#474747" fill-rule="evenodd"/>
        <path id="path4968" d="M0,0,14.033.075v19l-4.107,6.21L8.273,22.971l-2.167-.139-.884.846-1.32.639-.684-1.571L0,19.079Z" transform="translate(1.674)" fill="#999" fill-rule="evenodd"/>
        <path id="path4970" d="M0,18.807V0H13.843L0,18.809,3.116,22.7l.914,2.385" transform="translate(1.767 0.224)" fill="none" stroke="#000" stroke-linecap="round" stroke-linejoin="round" stroke-width="0.383" fill-rule="evenodd"/>
        <path id="path4972" d="M0,14.4,10.83,0" transform="translate(1.779 0.277)" fill="none" stroke="#000" stroke-linecap="round" stroke-linejoin="round" stroke-width="0.383" fill-rule="evenodd"/>
        <path id="path4974" d="M7.987,0,0,10.528" transform="translate(1.767 0.277)" fill="none" stroke="#000" stroke-linecap="round" stroke-linejoin="round" stroke-width="0.383" fill-rule="evenodd"/>
        <path id="path4976" d="M5.373,0,0,6.56" transform="translate(1.767 0.33)" fill="none" stroke="#000" stroke-linecap="round" stroke-linejoin="round" stroke-width="0.383" fill-rule="evenodd"/>
        <path id="path4978" d="M2.517,0,0,3.174" transform="translate(1.768 0.225)" fill="none" stroke="#000" stroke-linecap="round" stroke-linejoin="round" stroke-width="0.383" fill-rule="evenodd"/>
        <path id="path4980" d="M2.729,0V18.886L0,23.013" transform="translate(12.88 0.265)" fill="none" stroke="#000" stroke-linecap="round" stroke-linejoin="round" stroke-width="0.383" fill-rule="evenodd"/>
        <path id="path4982" d="M0,0,13.759,18.854" transform="translate(1.81 0.225)" fill="none" stroke="#000" stroke-linecap="round" stroke-linejoin="round" stroke-width="0.383" fill-rule="evenodd"/>
        <path id="path4984" d="M10.83,14.4,0,0" transform="translate(4.791 0.277)" fill="none" stroke="#000" stroke-linecap="round" stroke-linejoin="round" stroke-width="0.383" fill-rule="evenodd"/>
        <path id="path4986" d="M0,0,7.986,10.528" transform="translate(7.551 0.277)" fill="none" stroke="#000" stroke-linecap="round" stroke-linejoin="round" stroke-width="0.383" fill-rule="evenodd"/>
        <path id="path4988" d="M0,0,5.339,6.523" transform="translate(10.255 0.33)" fill="none" stroke="#000" stroke-linecap="round" stroke-linejoin="round" stroke-width="0.383" fill-rule="evenodd"/>
        <path id="path4990" d="M5.373,0,0,6.56" transform="translate(1.767 0.33)" fill="none" stroke="#000" stroke-linecap="round" stroke-linejoin="round" stroke-width="0.383" fill-rule="evenodd"/>
        <path id="path4992" d="M0,0,2.517,3.174" transform="translate(13.063 0.225)" fill="none" stroke="#000" stroke-linecap="round" stroke-linejoin="round" stroke-width="0.383" fill-rule="evenodd"/>
        <path id="path4994" d="M0,0,12.458,17.357" transform="translate(1.81 3.816)" fill="none" stroke="#000" stroke-linecap="round" stroke-linejoin="round" stroke-width="0.383" fill-rule="evenodd"/>
        <path id="path4996" d="M0,0,9.841,14.025" transform="translate(1.741 7.408)" fill="none" stroke="#000" stroke-linecap="round" stroke-linejoin="round" stroke-width="0.383" fill-rule="evenodd"/>
        <path id="path4998" d="M12.27,0,0,17.058" transform="translate(3.332 3.91)" fill="none" stroke="#000" stroke-linecap="round" stroke-linejoin="round" stroke-width="0.383" fill-rule="evenodd"/>
        <path id="path5000" d="M9.522,0,0,13.57" transform="translate(6.08 7.633)" fill="none" stroke="#000" stroke-linecap="round" stroke-linejoin="round" stroke-width="0.383" fill-rule="evenodd"/>
        <path id="path5002" d="M0,0,7.024,10.017,10,13.64" transform="translate(1.719 11.387)" fill="none" stroke="#000" stroke-linecap="round" stroke-linejoin="round" stroke-width="0.383" fill-rule="evenodd"/>
        <path id="path5004" d="M9.9,0l-6.9,10.092L0,13.958" transform="translate(5.762 11.387)" fill="none" stroke="#000" stroke-linecap="round" stroke-linejoin="round" stroke-width="0.383" fill-rule="evenodd"/>
        <path id="path5006" d="M0,0,4.308,5.978" transform="translate(1.767 15.196)" fill="none" stroke="#000" stroke-linecap="round" stroke-linejoin="round" stroke-width="0.383" fill-rule="evenodd"/>
        <path id="path5008" d="M3.969,0,0,6.176" transform="translate(11.592 15.248)" fill="none" stroke="#000" stroke-linecap="round" stroke-linejoin="round" stroke-width="0.383" fill-rule="evenodd"/>
        <path id="path5010" d="M1.355,1.719l-.569.04L0,0,.211,1.857.151,3.64Z" transform="translate(11.605 21.425)" fill="#474747" stroke="#000" stroke-linecap="round" stroke-linejoin="round" stroke-width="0.383" fill-rule="evenodd"/>
        <path id="path5012" d="M0,1.759l.46-.053L1.21,0,.956,2.1.932,4.113Z" transform="translate(4.87 21.174)" fill="#474747" stroke="#000" stroke-linecap="round" stroke-linejoin="round" stroke-width="0.383" fill-rule="evenodd"/>
        <path id="path5014" d="M.881,3.638v-1.7l-.3-.028L0,1.347,1.01,0,2.259,1.216l-.539.645-.3.047-.01,1.74Z" transform="translate(7.781 21.491)" fill="#474747" stroke="#000" stroke-linecap="round" stroke-linejoin="round" stroke-width="0.383" fill-rule="evenodd"/>
        <path id="path5016" d="M1.78.187,0,0" transform="translate(5.951 22.558)" fill="none" stroke="#000" stroke-linecap="round" stroke-linejoin="round" stroke-width="0.383" fill-rule="evenodd"/>
        <path id="path5018" d="M0,.168,1.677,0" transform="translate(10.074 22.576)" fill="none" stroke="#000" stroke-linecap="round" stroke-linejoin="round" stroke-width="0.383" fill-rule="evenodd"/>
        <path id="path5020" d="M4.961,22.828l-1.355.106a3.611,3.611,0,0,0-.557-1.058,4.8,4.8,0,0,0-1.234-.661A2.306,2.306,0,0,0,1.6,20.183,5.208,5.208,0,0,0,.339,19.2,8.448,8.448,0,0,0,.6,17.246,9.072,9.072,0,0,0,0,15.289a7.438,7.438,0,0,0,.581-2.037,6.477,6.477,0,0,0-.557-1.9,10.988,10.988,0,0,0,.46-2.169A8.08,8.08,0,0,0,.1,7.3,7,7,0,0,0,.581,5.37,5.727,5.727,0,0,0,0,3.65,6.308,6.308,0,0,0,.46,1.958,4.715,4.715,0,0,0,0,.5L1.719,0" transform="translate(0 0.173)" fill="none" stroke="#000" stroke-linecap="round" stroke-linejoin="round" stroke-width="0.383" fill-rule="evenodd"/>
        <path id="path5022" d="M0,.291,1.283,0" transform="translate(0.363 19.085)" fill="none" stroke="#000" stroke-linecap="round" stroke-linejoin="round" stroke-width="0.383" fill-rule="evenodd"/>
        <path id="path5024" d="M.171,3.7,0,0" transform="translate(3.145 17.172)" fill="none" stroke="#000" stroke-linecap="round" stroke-linejoin="round" stroke-width="0.383" fill-rule="evenodd"/>
        <path id="path5026" d="M.171,3.479,0,0" transform="translate(5.883 17.547)" fill="none" stroke="#000" stroke-linecap="round" stroke-linejoin="round" stroke-width="0.383" fill-rule="evenodd"/>
        <path id="path5028" d="M.034,3.7,0,0" transform="translate(11.529 17.545)" fill="none" stroke="#000" stroke-linecap="round" stroke-linejoin="round" stroke-width="0.383" fill-rule="evenodd"/>
        <path id="path5030" d="M0,3.741V0" transform="translate(14.268 17.321)" fill="none" stroke="#000" stroke-linecap="round" stroke-linejoin="round" stroke-width="0.383" fill-rule="evenodd"/>
        <path id="path5032" d="M0,0,1.158.037l.187,1.345L2.13,2.5l1.42.411,1.009.149L3.4,3.923H1.644l-1.2-.971L0,1.345Z" transform="translate(5.126 25.165)" fill="#4d4d4d" fill-rule="evenodd"/>
        <path id="path5034" d="M5.135,4.074a9.876,9.876,0,0,1-1.554,1,3.561,3.561,0,0,1-1.452.159,2.354,2.354,0,0,1-1.21-.476A2.48,2.48,0,0,1,.29,3.7,5.642,5.642,0,0,1,.048,2.328C0,1.889,0,1.005,0,1.005L1.113,0" transform="translate(5.058 23.871)" fill="none" stroke="#000" stroke-linecap="round" stroke-linejoin="round" stroke-width="0.383" fill-rule="evenodd"/>
        <path id="path5036" d="M0,.318A4.553,4.553,0,0,0,.194,1.534,2.7,2.7,0,0,0,1.21,2.8a2.8,2.8,0,0,0,1.307.212A3.392,3.392,0,0,0,3.824,2.91a2.246,2.246,0,0,0,1.016-.741,2.3,2.3,0,0,0,.29-.847C5.236.89,5.325,0,5.325,0" transform="translate(6.269 25.036)" fill="none" stroke="#000" stroke-linecap="round" stroke-linejoin="round" stroke-width="0.383" fill-rule="evenodd"/>
      </g>
    </g>
  </g>
</svg>
