<svg xmlns="http://www.w3.org/2000/svg" xmlns:xlink="http://www.w3.org/1999/xlink" width="62.392" height="888.358" viewBox="0 0 62.392 888.358">
  <defs>
    <linearGradient id="linear-gradient" x1="-9.889" y1="-1.853" x2="-8.942" y2="-1.853" gradientUnits="objectBoundingBox">
      <stop offset="0"/>
      <stop offset="1" stop-opacity="0"/>
    </linearGradient>
    <linearGradient id="linear-gradient-2" x1="100.599" y1="2.852" x2="101.56" y2="2.852" xlink:href="#linear-gradient"/>
    <linearGradient id="linear-gradient-3" x1="-0.273" y1="11.099" x2="0.838" y2="11.099" gradientUnits="objectBoundingBox">
      <stop offset="0" stop-color="#e6e6e6"/>
      <stop offset="1" stop-color="#f9f9f9"/>
    </linearGradient>
    <linearGradient id="linear-gradient-4" x1="-0.285" y1="98.967" x2="0.837" y2="98.967" xlink:href="#linear-gradient-3"/>
    <linearGradient id="linear-gradient-5" x1="-0.341" y1="-10.105" x2="1.035" y2="-10.105" xlink:href="#linear-gradient-3"/>
    <linearGradient id="linear-gradient-6" x1="-0.354" y1="-98.026" x2="1.035" y2="-98.026" xlink:href="#linear-gradient-3"/>
  </defs>
  <g id="g10857" transform="translate(0.199 0.2)">
    <g id="g10495" transform="translate(8.654 166.24)">
      <rect id="rect10487" width="44.637" height="694.835" fill="#fff"/>
      <g id="g10493" transform="translate(0.512 0.087)">
        <rect id="rect10489" width="22.086" height="694.072" fill="url(#linear-gradient)" transform="translate(0 0.32)" stroke-linecap="round" stroke-linejoin="round" stroke-width="0.42" opacity="0.034" stroke="rgba(255,255,255,0)"/>
        <rect id="rect10491" width="21.762" height="694.072" fill="url(#linear-gradient-2)" transform="translate(43.572 694.072) rotate(180)" stroke-linecap="round" stroke-linejoin="round" stroke-width="0.42" opacity="0.034" stroke="rgba(255,255,255,0)"/>
      </g>
    </g>
    <rect id="rect10497" width="1.149" height="1.136" transform="translate(53.366 862.037)" fill="#f7f7f7"/>
    <rect id="rect10499" width="1.14" height="1.084" transform="translate(7.336 862.061)" fill="#f7f7f7"/>
    <path id="path10501" d="M495.1,1009.124a2.082,2.082,0,0,1-.188-.547v-.062h8.106l.03.139c.06.281.06.344,0,.456l-.061.105h-7.822l-.059-.105h0Z" transform="translate(-484.374 -136.447)" fill="#f7f7f7"/>
    <path id="path10503" d="M498.886,1009.077a2.687,2.687,0,0,1-.188-.538c0-.024,1.738-.024,4.177-.024h4.177l-.017.072a2.363,2.363,0,0,1-.171.485l-.071.141h-7.83l-.077-.153Z" transform="translate(-479.101 -136.447)" fill="#f7f7f7"/>
    <path id="path10505" d="M502.487,1009.391s.028-.093.062-.179a3.863,3.863,0,0,0,.164-.612l.017-.086h2.1c1.974,0,2.1,0,2.109.045.007.026.021.1.031.165a3.511,3.511,0,0,0,.108.393c.049.151.089.279.089.284h-2.338c-1.286,0-2.338,0-2.338-.024Z" transform="translate(-473.829 -136.45)" fill="#f7f7f7"/>
    <path id="path10507" d="M504.929,1009.077a2.685,2.685,0,0,1-.188-.538c0-.024,1.737-.024,4.174-.024,3.112,0,4.174,0,4.174.031a2.356,2.356,0,0,1-.179.525l-.074.146h-7.83l-.077-.153Z" transform="translate(-470.694 -136.447)" fill="#f7f7f7"/>
    <path id="path10509" d="M508.669,1009.151c-.081-.132-.086-.179-.041-.4.024-.11.042-.208.042-.215s1.831-.024,4.069-.024h4.069l-.017.072a2.888,2.888,0,0,1-.184.513l-.065.127h-7.82l-.053-.086Z" transform="translate(-465.325 -136.449)" fill="#f7f7f7"/>
    <path id="path10511" d="M494.154,1003.89l44.4.074.024,7.829-1.668,4.187-41.05-.127-1.667-4.191Z" transform="translate(-485.421 -142.881)" fill="#101010"/>
    <path id="path10513" d="M494.142,1003.94h44.586" transform="translate(-485.438 -142.812)" fill="none" stroke="#000" stroke-width="0.4"/>
    <path id="path10515" d="M496.421,1050.09l.11-.338.189-.371.26-.386.325-.384.382-.364.432-.327.475-.271.51-.2.539-.108h.56l.574.124.581.269.964,2.523,1.011,2.789,1.011,2.789,1.011,2.789,1.011,2.789,1.011,2.789,1.011,2.789,1.011,2.789,1.011,2.789,1.011,2.789,1.011,2.789,1.011,2.789.255.677.048.084.052.079.056.072.06.067.063.062.066.057.069.05.071.045.073.041.075.036.076.031.077.026.078.024.078.024h.723l.126-.057.124-.12.121-.177.117-.225.112-.269.105-.306.1-.336.089-.36.08-.376.069-.387.057-.391-.462-4.36-1.073-9.123-1.073-9.124-1.073-9.123-1.073-9.123-1.073-9.123-1.073-9.123-1.073-9.123-1.073-9.123-1.073-9.123-1.073-9.123-1.073-9.123-.7-6.178,0-.6,0-.6,0-.6,0-.6,0-.6,0-.6,0-.6,0-.6,0-.6,0-.6,0-.6-.024-.751-.085-1.167-.087-1.057-.089-.956-.092-.861-.094-.774-.1-.694-.1-.622-.1-.557-.1-.5-.1-.451-.105-.408-.107-.374-.109-.344-.11-.318-.112-.292-.113-.267-.115-.243-.117-.22-.119-.2-.12-.178-.122-.159-.124-.141-.125-.124-.127-.107-.129-.093-.131-.078-.132-.063-.134-.048-.136-.033-.137-.019-.139,0-.141.01-.142.024-.144.039-.145.053-.147.067-.148.081-.15.1-.152.111-.153.127-.155.144-.158.162-.16.18-.162.2-.165.219-.168.24-.171.261-.174.283-.177.306-.179.327-.181.346-.182.362-.182.376-.181.388-.179.4-.177.405-.174.41-.169.413-.164.413-.158.411-.152.407-.144.4-.137.4-.129.4-.12.4-.111.4-.1.4-.092.4-.082.4-.072.409" transform="translate(-485.589 -218.251)" fill="#f2f2f2" stroke="#000" stroke-width="0.4"/>
    <path id="path10517" d="M499.558,1045.166l-.089.515-.089.525-.088.535-.087.544-.086.553-.085.563-.084.571-.083.579-.082.587-.082.595-.081.6-.08.609-.08.615-.079.621-.078.627-.078.633-.077.638-.077.643-.076.647-.075.651-.075.655-.074.658-.147,1.325-.146,1.335-.144,1.342-.286,2.693-.141,1.345-.141,1.341-.14,1.334-.14,1.324-.07.658-.07.654-.07.651-.07.646-.07.642-.07.637-.07.632-.071.626-.071.62-.071.614-.036.3-.01.077,0,.038,0,.024h0l-.017.041-.019.033-.019.029-.019.024-.019.024-.019.024h-.156l-.079-.038-.155-.088-.151-.091-.146-.091-.141-.091-.137-.093-.132-.093-.128-.1-.124-.1-.12-.1-.115-.1-.111-.1-.108-.1-.1-.1-.1-.1-.1-.1-.093-.1-.089-.1-.168-.208-.155-.21-.143-.213-.131-.215-.12-.218-.11-.218-.1-.22-.092-.22-.083-.222-.076-.222-.069-.222-.063-.225-.057-.225-.053-.225-.048-.222-.045-.222-.022-.112-.01-.055,0-.029h0v0h0v-.024l0-.134.01-.269.576-17.248,1.152-34.494,1.152-34.495.576-17.247.144-4.312.036-1.078,0-.067V962.6h0v-.009l0-.014,0-.029.017-.113.035-.223.035-.217.035-.212.035-.207.035-.2.035-.2.035-.193.035-.189.036-.186.036-.182.073-.355.075-.345.077-.336.079-.331.082-.326.085-.325.089-.325.092-.328.1-.332.1-.337.109-.343.117-.349.126-.357.067-.181.07-.184.073-.186.076-.189.079-.191.082-.194.086-.2.089-.2.093-.2.1-.206.1-.209.105-.213.11-.216.114-.22" transform="translate(-488.726 -213.327)" fill="#f2f2f2" stroke="#000" stroke-linecap="round" stroke-width="0.4"/>
    <path id="path10519" d="M523.56,1050.09l-.11-.338-.189-.371L523,1049l-.325-.384-.382-.364-.432-.327-.475-.271-.51-.2-.539-.108h-.56l-.574.124-.581.269-.964,2.523-1.011,2.789-1.011,2.789-1.011,2.789-1.011,2.789L512.6,1064.2l-1.011,2.789-1.011,2.789-1.011,2.789-1.011,2.789-1.011,2.789-1.011,2.789-.255.677-.048.084-.052.079-.056.072-.06.067-.063.062-.066.057-.069.05-.071.045-.073.041-.074.036-.076.031-.077.026-.078.024-.078.024h-.723l-.126-.057-.124-.12-.121-.177-.117-.225-.112-.269-.105-.306-.1-.336-.089-.36-.08-.376-.069-.387-.057-.391.462-4.36,1.073-9.123,1.073-9.124,1.073-9.123,1.073-9.123,1.073-9.123,1.073-9.123,1.073-9.123,1.073-9.123,1.073-9.123,1.073-9.123,1.073-9.123.7-6.178,0-.6,0-.6,0-.6,0-.6,0-.6,0-.6,0-.6,0-.6,0-.6,0-.6,0-.6.024-.751.085-1.167.087-1.057.089-.956.092-.861.094-.774.1-.694.1-.622.1-.557.1-.5.1-.451.105-.408.107-.374.109-.344.11-.318.112-.292.113-.267.115-.243.117-.22.118-.2.12-.178.122-.159.124-.141.125-.124.127-.107.129-.093.131-.078.132-.063.134-.048.136-.033.137-.019.139,0,.141.01.142.024.144.039.145.053.147.067.148.081.15.1.152.111.153.127.156.144.157.162.16.18.162.2.165.219.168.24.17.261.174.283.177.306.179.327.181.346.182.362.182.376.181.388.179.4.177.405.173.41.169.413.164.413.158.411.152.407.144.4.137.4.129.4.12.4.111.4.1.4.093.4.082.4.072.409" transform="translate(-472.399 -218.251)" fill="#f2f2f2" stroke="#000" stroke-width="0.4"/>
    <path id="path10521" d="M511.9,1045.166l.089.515.089.525.088.535.087.544.086.553.085.563.084.571.083.579.083.587.082.595.081.6.08.609.08.615.079.621.078.627.078.633.077.638.077.643.076.647.075.651.075.655.074.658.148,1.325.146,1.335.145,1.342.285,2.693.141,1.345.141,1.341.141,1.334.14,1.324.07.658.07.654.07.651.07.646.07.642.07.637.07.632.071.626.071.62.071.614.036.3.01.077,0,.038,0,.024h0l.017.041.019.033.019.029.019.024.019.024.019.024H516l.079-.038.155-.088.151-.091.146-.091.141-.091.137-.093.132-.093.128-.1.124-.1.12-.1.115-.1.111-.1.108-.1.1-.1.1-.1.1-.1.093-.1.089-.1.168-.208.155-.21.143-.213.131-.215.12-.218.11-.218.1-.22.092-.22.083-.222.076-.222.069-.222.063-.225.057-.225.052-.225.048-.222.045-.222.021-.112.01-.055,0-.029h0v0h0v-.024l0-.134-.01-.269-.576-17.248-1.152-34.494-1.152-34.495-.576-17.247-.144-4.312-.036-1.078,0-.067V962.6h0v-.009l0-.014,0-.029-.017-.113-.035-.223-.035-.217-.035-.212-.035-.207-.035-.2-.035-.2-.035-.193-.035-.189-.036-.186-.036-.182-.073-.355-.075-.345-.077-.336-.079-.331-.082-.326-.085-.325-.089-.325-.092-.328-.1-.332-.1-.337-.109-.343-.117-.349-.126-.357-.067-.181-.07-.184-.073-.186-.076-.189-.079-.191-.082-.194-.086-.2-.089-.2-.093-.2-.1-.206-.1-.209-.105-.213-.109-.216-.114-.22" transform="translate(-460.737 -213.327)" fill="#f2f2f2" stroke="#000" stroke-linecap="round" stroke-width="0.4"/>
    <g id="g10535" transform="translate(17.054 873.221)">
      <g id="g10527">
        <path id="path10523" d="M450.543,1032.991c-.46-1.139-1.066-2.463-1.671-3.65l-.235-.461.1-.182c.17-.316.561-1,.8-1.4l.084-.139h2.321l.091.151c.2.337.722,1.25.846,1.487l.042.082-.123.237c-.66,1.268-1.32,2.706-1.851,4.031l-.089.222H450.7l-.153-.378h0Z" transform="translate(-448.637 -1026.78)" fill="#333" stroke="rgba(255,255,255,0)" stroke-linecap="round" stroke-linejoin="round" stroke-width="0.4"/>
        <path id="path10525" d="M460.349,1032.831c-.46-1.139-1.066-2.463-1.672-3.65l-.235-.461.1-.182c.17-.316.561-1,.8-1.4l.084-.139h2.321l.091.151c.2.337.722,1.25.846,1.487l.043.081-.123.237c-.66,1.268-1.32,2.706-1.851,4.031l-.089.223H460.5l-.152-.378h0Z" transform="translate(-434.995 -1027.002)" fill="#333" stroke="rgba(255,255,255,0)" stroke-linecap="round" stroke-linejoin="round" stroke-width="0.4"/>
      </g>
      <path id="path10529" d="M454.9,1031.406c.19-.374.546-1.038.791-1.476l.444-.8-.523-.927-.523-.927h-.9c-.767,0-.9-.026-.9-.1s-.074-.093-.389-.079c-.368.026-.4.031-.516.242l-.128.222.673,1.294c.37.712.869,1.727,1.108,2.255a8.275,8.275,0,0,0,.475.964,4.334,4.334,0,0,0,.387-.677Z" transform="translate(-443.601 -1026.868)" fill="#333" stroke="rgba(255,255,255,0)" stroke-linecap="round" stroke-linejoin="round" stroke-width="0.4"/>
      <path id="path10531" d="M456.348,1031.386c-.19-.374-.546-1.038-.791-1.476l-.444-.8.523-.927.523-.927h.9c.767,0,.9-.026.9-.1s.074-.093.389-.079c.368.026.4.031.517.242l.128.222-.673,1.294c-.37.712-.869,1.727-1.108,2.255a8.264,8.264,0,0,1-.475.964,4.351,4.351,0,0,1-.387-.677Z" transform="translate(-439.626 -1026.896)" fill="#333" stroke="rgba(255,255,255,0)" stroke-linecap="round" stroke-linejoin="round" stroke-width="0.4"/>
      <path id="path10533" d="M452.12,1041.439c0-.031.2-.912.226-1.007.414-5.379.844-4.262,2.543-7.526a35.772,35.772,0,0,1,1.8-3.638l.328-.578v-1.5h1.605v1.519l.344.607c.36.635,1.354,2.589,1.584,3.114l.134.306c2.109,5.742.523.7,2.693,8.115.055.25.1.49.1.534,0,.079-.01.079-5.679.079-3.123,0-5.679,0-5.679-.026Z" transform="translate(-443.791 -1026.739)" fill="#333" stroke="rgba(255,255,255,0)" stroke-linecap="round" stroke-linejoin="round" stroke-width="0.4"/>
    </g>
    <path id="path10537" d="M494.142,759.61h44.586" transform="translate(-485.438 -482.713)" fill="none" stroke="#000" stroke-width="0.4"/>
    <path id="path10539" d="M508.412,1009.01h-2.434" transform="translate(-468.972 -135.759)" fill="none" stroke="#000" stroke-width="0.4"/>
    <path id="path10541" d="M496.089,1014.33h11.744" transform="translate(-482.73 -128.358)" fill="none" stroke="#000" stroke-width="0.4"/>
    <path id="path10543" d="M498.035,1009.01h2.434" transform="translate(-480.022 -135.759)" fill="none" stroke="#000" stroke-width="0.4"/>
    <path id="path10545" d="M500.107,1010.99q-.5-1-1.053-1.977" transform="translate(-478.605 -135.755)" fill="none" stroke="#000" stroke-width="0.4"/>
    <path id="path10547" d="M498.648,1009.01q-.553.974-1.053,1.977" transform="translate(-480.635 -135.759)" fill="none" stroke="#000" stroke-width="0.4"/>
    <path id="path10549" d="M501.417,1009.01h1.827" transform="translate(-475.318 -135.759)" fill="none" stroke="#000" stroke-width="0.4"/>
    <path id="path10551" d="M503.547,1011.124q-.506-1.032-1.068-2.034" transform="translate(-473.84 -135.648)" fill="none" stroke="#000" stroke-width="0.4"/>
    <path id="path10553" d="M501.741,1009.01q-.285.5-.557,1.012" transform="translate(-475.641 -135.759)" fill="none" stroke="#000" stroke-width="0.4"/>
    <path id="path10555" d="M517.674,1014.33H505.93" transform="translate(-469.04 -128.358)" fill="none" stroke="#000" stroke-width="0.4"/>
    <path id="path10557" d="M510.31,1009.01h-2.434" transform="translate(-466.332 -135.759)" fill="none" stroke="#000" stroke-width="0.4"/>
    <path id="path10559" d="M508.49,1009.01q-.554.974-1.053,1.977" transform="translate(-466.943 -135.759)" fill="none" stroke="#000" stroke-width="0.4"/>
    <path id="path10561" d="M509.948,1010.99q-.5-1-1.053-1.977" transform="translate(-464.915 -135.755)" fill="none" stroke="#000" stroke-width="0.4"/>
    <path id="path10563" d="M506.576,1009.01h-1.827" transform="translate(-470.682 -135.759)" fill="none" stroke="#000" stroke-width="0.4"/>
    <path id="path10565" d="M502.181,1009.962a2.487,2.487,0,0,0,.517-1.636" transform="translate(-474.255 -136.711)" fill="none" stroke="#000" stroke-width="0.4"/>
    <path id="path10567" d="M498.7,1009.01h8.314" transform="translate(-479.092 -135.759)" fill="none" stroke="#000" stroke-width="0.4"/>
    <path id="path10569" d="M504.534,1008.33a2.485,2.485,0,0,0,.517,1.636" transform="translate(-470.986 -136.705)" fill="none" stroke="#000" stroke-width="0.4"/>
    <path id="path10571" d="M508.225,1009.962a2.486,2.486,0,0,0,.517-1.636" transform="translate(-465.846 -136.711)" fill="none" stroke="#000" stroke-width="0.4"/>
    <path id="path10573" d="M502.479,1009.09h4.715" transform="translate(-473.84 -135.647)" fill="none" stroke="#000" stroke-width="0.4"/>
    <path id="path10575" d="M501.672,1009.01q.061.1.13.187" transform="translate(-474.963 -135.759)" fill="none" stroke="#000" stroke-width="0.4"/>
    <path id="path10577" d="M505.2,1009.2q.07-.09.131-.187" transform="translate(-470.051 -135.756)" fill="none" stroke="#000" stroke-width="0.4"/>
    <path id="path10579" d="M501.726,1009.09h8.314" transform="translate(-474.888 -135.647)" fill="none" stroke="#000" stroke-width="0.4"/>
    <path id="path10581" d="M505.122,1009.09q-.562,1-1.068,2.034" transform="translate(-471.648 -135.647)" fill="none" stroke="#000" stroke-width="0.4"/>
    <path id="path10583" d="M505.122,1009.09q-.562,1-1.068,2.034" transform="translate(-471.648 -135.647)" fill="none" stroke="#000" stroke-width="0.4"/>
    <path id="path10585" d="M506.059,1009.914q-.243-.453-.5-.9" transform="translate(-469.551 -135.754)" fill="none" stroke="#000" stroke-width="0.4"/>
    <path id="path10587" d="M512.788,713.118V1289.07" transform="translate(-459.499 -547.39)" fill="none" stroke="#000" stroke-width="0.4"/>
    <path id="path10589" d="M501.457,1014.33q-.236.988-.424,1.986h11.744q-.187-1-.424-1.986" transform="translate(-475.85 -128.358)" fill="none" stroke="#000" stroke-width="0.4"/>
    <path id="path10591" d="M502.132,1014.975a41.038,41.038,0,0,1,2.03-4.086v-1.8" transform="translate(-474.323 -135.65)" fill="none" stroke="#000" stroke-width="0.4"/>
    <path id="path10593" d="M504,1009.09v1.8a41.067,41.067,0,0,1,1.966,3.938" transform="translate(-471.726 -135.647)" fill="none" stroke="#000" stroke-width="0.4"/>
    <path id="path10595" d="M504.6,1016.521a41.066,41.066,0,0,0-3.323-7.513h-2.434a41.055,41.055,0,0,0-4.655,12.712h11.744" transform="translate(-485.372 -135.761)" fill="#333" stroke="#000" stroke-width="0.4"/>
    <path id="path10597" d="M508.386,1009.25a2.484,2.484,0,0,0,.383.708h8.314a2.486,2.486,0,0,0,.517-1.636" transform="translate(-465.623 -136.716)" fill="none" stroke="#000" stroke-width="0.4"/>
    <path id="path10599" d="M507.828,1021.726h11.744a41.057,41.057,0,0,0-4.655-12.713h-2.434a41.065,41.065,0,0,0-3.323,7.513" transform="translate(-466.399 -135.754)" fill="#333" stroke="#000" stroke-width="0.4"/>
    <path id="path10601" d="M502.642,1009.01a41.059,41.059,0,0,0-4.655,12.712h11.744a41.059,41.059,0,0,0-4.655-12.712Z" transform="translate(-480.089 -135.759)" fill="#333" stroke="#000" stroke-width="0.4"/>
    <g id="g10625" transform="translate(0)">
      <g id="g10615" transform="translate(0.291 0.415)">
        <g id="g10607" transform="translate(0)">
          <path id="path10603" d="M224.141,253.089c-.155-2.383-.209-23.544-.12-47.025.177-46.4.149-45.812,2.689-57.678a68.84,68.84,0,0,1,17.779-34.214c3.7-3.969,6.662-5.949,8.913-5.959l.951,0V257.421h-29.93l-.282-4.333Z" transform="translate(-223.978 -108.207)" fill="url(#linear-gradient-3)"/>
          <path id="path10605" d="M232.317,185.653c-.226-.291-1.8-3.1-3.492-6.235s-3.45-6.325-3.9-7.08l-.821-1.374h30.081v15.217H243.455C235.374,186.181,232.626,186.051,232.317,185.653Z" transform="translate(-223.806 -20.904)" fill="url(#linear-gradient-4)"/>
        </g>
        <g id="g10613" transform="translate(61.531 165.278) rotate(180)">
          <path id="path10609" d="M.163,4.332C.008,6.715-.046,27.877.043,51.358c.177,46.4.149,45.812,2.689,57.678A68.84,68.84,0,0,0,20.511,143.25c3.7,3.969,6.662,5.949,8.913,5.959l.951,0V0H.445L.163,4.333Z" transform="translate(0 16.064)" fill="url(#linear-gradient-5)"/>
          <path id="path10611" d="M8.215.528c-.226.291-1.8,3.1-3.492,6.235s-3.45,6.325-3.9,7.08L0,15.217H30.081V0H19.354C11.273,0,8.525.13,8.215.528Z" transform="translate(0.295 0)" fill="url(#linear-gradient-6)"/>
        </g>
      </g>
      <path id="path10617" d="M492.642,731.219h44.586" transform="translate(-483.938 -565.25)" fill="none" stroke="#000" stroke-width="0.4"/>
      <path id="path10619" d="M489,724.544h61.991" transform="translate(-489.002 -574.535)" fill="none" stroke="#000" stroke-width="0.4"/>
      <path id="path10621" d="M497.705,827.779l-.931-1.707-.931-1.707-.931-1.707-.931-1.707-.931-1.707-.931-1.707-.931-1.707-.931-1.707-.931-1.707L489,805.568v-77.1l.035-7.152.119-1.267.121-1.267.124-1.267.129-1.267.135-1.267.142-1.267.151-1.267.161-1.268.173-1.268.186-1.268.2-1.268.214-1.267.229-1.265.244-1.263.26-1.26.276-1.256.293-1.251.311-1.245.329-1.239.348-1.232.367-1.224.386-1.216.407-1.207.427-1.2.449-1.186.47-1.175.493-1.162.516-1.15.538-1.137.561-1.125.583-1.113.605-1.1.627-1.091.649-1.081.671-1.071.692-1.062.713-1.053.734-1.045.755-1.037.775-1.03.8-1.023.816-1.016.836-1.011.855-1.005.875-1,.894-1,.917-.979.945-.941.978-.883,1.016-.8,1.06-.7,1.109-.583,1.164-.441,1.224-.281,1.292-.157h1.351l1.293.156,1.224.28,1.164.44,1.11.582,1.061.7,1.017.8.978.882.945.941.917.978.894,1,.875,1,.855,1.005.835,1.011.815,1.016.8,1.023.775,1.03.754,1.037.734,1.045.713,1.053.692,1.062.671,1.071.649,1.081.628,1.091.606,1.1.584,1.113.562,1.125.54,1.137.518,1.149.5,1.162.473,1.174.452,1.186.43,1.2.41,1.206.389,1.215.369,1.224.35,1.232.331,1.239.312,1.245.294,1.251.276,1.255.259,1.26.242,1.263.225,1.266.209,1.268.194,1.269.179,1.269.164,1.269.151,1.269.14,1.269.13,1.268.122,1.268.115,1.268.11,1.268.106,1.268.1,1.268.031,7.153v77.1l-.327,6.849-.931,1.707-.931,1.707-.931,1.707-.931,1.707-.931,1.707-.931,1.707-.931,1.707-.931,1.707-.931,1.707" transform="translate(-489.001 -661.809)" fill="none" stroke="#000" stroke-width="0.4"/>
      <path id="path10623" d="M501.965,827.778V661.81" transform="translate(-470.969 -661.808)" fill="none" stroke="#000" stroke-width="0.4"/>
    </g>
    <path id="path10627" d="M499.689,956.386l-2.951-3.126" transform="translate(-481.827 -213.316)" fill="none" stroke="#000" stroke-width="0.4"/>
    <path id="path10629" d="M499.869,953.259h-5.381" transform="translate(-484.958 -213.317)" fill="none" stroke="#000" stroke-width="0.4"/>
    <path id="path10631" d="M494.219,1017.178l.417-57.673" transform="translate(-485.331 -204.628)" fill="none" stroke="#000" stroke-width="0.4"/>
    <path id="path10633" d="M494.393,963.574l5.166-6.995" transform="translate(-485.089 -208.698)" fill="none" stroke="#000" stroke-width="0.4"/>
    <path id="path10635" d="M495.829,963.225l-2.468-6.394" transform="translate(-486.525 -208.348)" fill="none" stroke="#000" stroke-width="0.4"/>
    <path id="path10637" d="M496.554,961.2,497,953.26" transform="translate(-482.083 -213.316)" fill="none" stroke="#000" stroke-linecap="round" stroke-width="0.4"/>
    <path id="path10639" d="M494.142,1289.071V713.118" transform="translate(-485.438 -547.39)" fill="none" stroke="#000" stroke-width="0.4"/>
    <path id="path10641" d="M493.528,1004.25H495" transform="translate(-486.292 -142.381)" fill="none" stroke="#000" stroke-width="0.4"/>
    <path id="path10643" d="M493.453,1004.91H495.1" transform="translate(-486.397 -141.463)" fill="none" stroke="#000" stroke-width="0.4"/>
    <path id="path10645" d="M538.728,998.507v19.87a7.171,7.171,0,0,1-1.169,3.608H495.311a7.17,7.17,0,0,1-1.169-3.608v-19.87" transform="translate(-485.438 -150.37)" fill="none" stroke="#000" stroke-width="0.4"/>
    <path id="path10647" d="M503.159,1004.91h1.463" transform="translate(-472.894 -141.463)" fill="none" stroke="#000" stroke-width="0.4"/>
    <path id="path10649" d="M503.355,1004.25h.524" transform="translate(-472.621 -142.381)" fill="none" stroke="#000" stroke-width="0.4"/>
    <path id="path10651" d="M492.21,1032.732l.283-3.591.283-3.591.283-3.591.283-3.591.283-3.591.283-3.591.283-3.591.283-3.591.283-3.591.283-3.591.283-3.591.283-3.591.283-3.591.119-1.139.079-.285.094-.245.107-.206.119-.17.129-.136.138-.1.145-.074.15-.045.154-.024h.157l.157.024.156.043.154.06.151.076.147.091.143.1.14.112.136.125.132.131.128.139.123.144.118.148.114.151.109.153.1.153.423,1.052,1.394,3.752,1.394,3.752,1.394,3.752,1.394,3.753,1.394,3.752,1.394,3.752,1.394,3.752,1.394,3.752,1.394,3.752,1.394,3.752,1.394,3.752,1.394,3.752,1.394,3.752" transform="translate(-488.126 -171.078)" fill="none" stroke="#000" stroke-width="0.4"/>
    <path id="path10653" d="M508.958,956.386l2.951-3.126" transform="translate(-464.827 -213.316)" fill="none" stroke="#000" stroke-width="0.4"/>
    <path id="path10655" d="M510.192,953.259h5.381" transform="translate(-463.11 -213.317)" fill="none" stroke="#000" stroke-width="0.4"/>
    <path id="path10657" d="M512.954,1017.178l-.417-57.673" transform="translate(-459.849 -204.628)" fill="none" stroke="#000" stroke-width="0.4"/>
    <path id="path10659" d="M515.543,963.574l-5.166-6.995" transform="translate(-462.854 -208.698)" fill="none" stroke="#000" stroke-width="0.4"/>
    <path id="path10661" d="M512.537,963.225l2.468-6.394" transform="translate(-459.848 -208.348)" fill="none" stroke="#000" stroke-width="0.4"/>
    <path id="path10663" d="M510.633,961.2l-.441-7.939" transform="translate(-463.111 -213.316)" fill="none" stroke="#000" stroke-linecap="round" stroke-width="0.4"/>
    <path id="path10665" d="M514.256,1004.25h-1.468" transform="translate(-459.498 -142.381)" fill="none" stroke="#000" stroke-width="0.4"/>
    <path id="path10667" d="M514.435,1004.91h-1.647" transform="translate(-459.498 -141.463)" fill="none" stroke="#000" stroke-width="0.4"/>
    <path id="path10669" d="M529.628,1032.732l-.283-3.591-.283-3.591-.283-3.591-.283-3.591-.283-3.591-.283-3.591-.283-3.591-.283-3.591-.283-3.591-.283-3.591-.283-3.591-.283-3.591-.283-3.591-.119-1.139-.079-.285-.094-.245-.107-.206-.119-.17-.129-.136-.138-.1-.145-.074-.151-.045-.154-.024h-.157l-.157.024-.156.043-.154.06-.151.076-.147.091-.143.1-.14.112-.136.125-.132.131-.127.139-.123.144-.118.148-.114.151-.109.153-.1.153-.423,1.052-1.394,3.752-1.394,3.752-1.394,3.752-1.394,3.753-1.394,3.752-1.394,3.752-1.394,3.752-1.394,3.752-1.394,3.752-1.394,3.752-1.394,3.752-1.394,3.752L504,1035.108" transform="translate(-471.719 -171.078)" fill="none" stroke="#000" stroke-width="0.4"/>
    <path id="path10671" d="M511.12,1009.01a41.057,41.057,0,0,1,4.655,12.712H504.031a41.057,41.057,0,0,1,4.655-12.712" transform="translate(-471.681 -135.759)" fill="#333" stroke="#000" stroke-width="0.4"/>
    <path id="path10673" d="M504.748,1009.01h8.314" transform="translate(-470.684 -135.759)" fill="none" stroke="#000" stroke-width="0.4"/>
    <path id="path10675" d="M494.693,1008.33a2.485,2.485,0,0,0,.517,1.636h8.314a2.487,2.487,0,0,0,.383-.708" transform="translate(-484.676 -136.705)" fill="none" stroke="#000" stroke-width="0.4"/>
    <path id="path10677" d="M498.49,1008.33a2.485,2.485,0,0,0,.516,1.636" transform="translate(-479.394 -136.705)" fill="none" stroke="#000" stroke-width="0.4"/>
    <path id="path10679" d="M494.142,795.3h44.586" transform="translate(-485.438 -433.058)" fill="none" stroke="#000" stroke-width="0.4"/>
    <g id="g10701" transform="translate(23.425 693.219)">
      <path id="path10681" d="M189.142,941.9h-9.25l-.343.256v8.229h2.561V947.3l.244-.219h6.788c1.714,0,2.517-.461,2.517-1.645v-1.889c0-1.185-.8-1.646-2.518-1.646m0,3.042c0,.557-.369.673-1.172.673h-5.587l-.273-.265v-1.763l.244-.223h5.616c.8,0,1.172.115,1.172.675v.9Z" transform="translate(-178.201 -922.343)" fill="#005288"/>
      <path id="polyline10683" d="M16.015,3.7l2.2,3.228-.122.313H13.223L11.98,8.771h7.253l.5.306,1.126,1.553h2.93L17.369,2.038" transform="translate(-10.431 34.567)" fill="#005288"/>
      <g id="g10689" transform="translate(1.61 74.324)">
        <path id="polyline10685" d="M27.367,7.239V4.956l.264-.228h4.9V3.274H24.764V8.91h11.46V7.463H27.642" transform="translate(-24.764 -0.424)" fill="#005288"/>
        <rect id="rect10687" width="11.582" height="1.599" transform="translate(0 0)" fill="#005288"/>
      </g>
      <path id="path10691" d="M182.408,958.284h9.331c-.144-1.187-.88-1.516-2.748-1.516h-6.682c-2.107,0-2.78.411-2.78,2.006v4.474c0,1.6.672,2.008,2.78,2.008h6.682c1.895,0,2.621-.356,2.67-1.587h-9.253l-.274-.258v-4.955" transform="translate(-178.229 -901.654)" fill="#005288"/>
      <path id="path10693" d="M189.148,937.026H182.36l-.2-.22v-1.452l.2-.154h9.151l.125-.306c-.312-.8-1.119-1.176-2.618-1.176h-6.356c-2.106,0-2.779.411-2.779,2.006v.938c0,1.6.673,2.007,2.779,2.007h6.773l.213.187v1.518l-.173.237h-7.747V940.6H179.7s-.232.116-.223.171c.173,1.115.933,1.432,2.753,1.432h6.922c2.106,0,2.8-.411,2.8-2.008v-1.169c0-1.594-.693-2-2.8-2" transform="translate(-178.308 -933.719)" fill="#005288"/>
      <path id="path10695" d="M183.124,973.03h-3.81l-.207.393,4.231,3.084c.8-.464,1.674-.935,2.622-1.4" transform="translate(-178.816 -879.031)" fill="#005288"/>
      <path id="path10697" d="M182.214,976.456l3.719,2.712h3.857l.16-.359-5.553-4.065q-1.106.812-2.182,1.712" transform="translate(-174.494 -876.646)" fill="#005288"/>
      <path id="path10699" d="M182.724,983.752h-3.447l-.291-.456c2.344-2.263,13.046-10.768,26.977-11.85,0,0-12.186,1.353-23.238,12.307" transform="translate(-178.986 -881.236)" fill="#a7a9ac"/>
    </g>
    <g id="g10765" transform="translate(15.453 303.173)">
      <g id="g10739" transform="translate(4.5 31.321)">
        <rect id="rect10703" width="21.971" height="12.403" fill="#b22234"/>
        <path id="path10705" d="M0,.6H21.971m0,1.908H0M0,4.415H21.971m0,1.908H0M0,8.231H21.971m0,1.908H0" transform="translate(0 0.833)" stroke="#fff" stroke-width="0.385"/>
        <rect id="rect10707" width="8.788" height="6.678" fill="#3c3b6e"/>
        <g id="g10737" transform="translate(0.394 0.286)">
          <g id="g10729">
            <g id="g10725">
              <g id="g10721">
                <g id="g10717">
                  <path id="path10709" d="M.5.12.712.81.165.383H.842L.294.81Z" transform="translate(-0.165 -0.12)" fill="#fff"/>
                  <path id="use10711" d="M.5.12.712.81.165.383H.842L.294.81Z" transform="translate(-0.165 1.216)" fill="#fff"/>
                  <path id="use10713" d="M.5.12.712.81.165.383H.842L.294.81Z" transform="translate(-0.165 2.552)" fill="#fff"/>
                  <path id="use10715" d="M.5.12.712.81.165.383H.842L.294.81Z" transform="translate(-0.165 3.887)" fill="#fff"/>
                </g>
                <path id="use10719" d="M.5.12.712.81.165.383H.842L.294.81Z" transform="translate(-0.165 5.223)" fill="#fff"/>
              </g>
              <g id="use10723" transform="translate(0.732 0.668)">
                <path id="s" d="M.5.12.712.81.165.383H.842L.294.81Z" transform="translate(-0.165 -0.12)" fill="#fff"/>
                <path id="use11040" d="M.5.12.712.81.165.383H.842L.294.81Z" transform="translate(-0.165 1.216)" fill="#fff"/>
                <path id="use11042" d="M.5.12.712.81.165.383H.842L.294.81Z" transform="translate(-0.165 2.552)" fill="#fff"/>
                <path id="use11044" d="M.5.12.712.81.165.383H.842L.294.81Z" transform="translate(-0.165 3.887)" fill="#fff"/>
              </g>
            </g>
            <g id="use10727" transform="translate(1.465)">
              <g id="s5" transform="translate(0)">
                <g id="s4">
                  <path id="s-2" data-name="s" d="M.5.12.712.81.165.383H.842L.294.81Z" transform="translate(-0.165 -0.12)" fill="#fff"/>
                  <path id="use11040-2" data-name="use11040" d="M.5.12.712.81.165.383H.842L.294.81Z" transform="translate(-0.165 1.216)" fill="#fff"/>
                  <path id="use11042-2" data-name="use11042" d="M.5.12.712.81.165.383H.842L.294.81Z" transform="translate(-0.165 2.552)" fill="#fff"/>
                  <path id="use11044-2" data-name="use11044" d="M.5.12.712.81.165.383H.842L.294.81Z" transform="translate(-0.165 3.887)" fill="#fff"/>
                </g>
                <path id="use11046" d="M.5.12.712.81.165.383H.842L.294.81Z" transform="translate(-0.165 5.223)" fill="#fff"/>
              </g>
              <g id="use11048" transform="translate(0.732 0.668)">
                <path id="s-3" data-name="s" d="M.5.12.712.81.165.383H.842L.294.81Z" transform="translate(-0.165 -0.12)" fill="#fff"/>
                <path id="use11040-3" data-name="use11040" d="M.5.12.712.81.165.383H.842L.294.81Z" transform="translate(-0.165 1.216)" fill="#fff"/>
                <path id="use11042-3" data-name="use11042" d="M.5.12.712.81.165.383H.842L.294.81Z" transform="translate(-0.165 2.552)" fill="#fff"/>
                <path id="use11044-3" data-name="use11044" d="M.5.12.712.81.165.383H.842L.294.81Z" transform="translate(-0.165 3.887)" fill="#fff"/>
              </g>
            </g>
          </g>
          <g id="use10731" transform="translate(2.929)">
            <g id="s9" transform="translate(0)">
              <g id="s5-2" data-name="s5">
                <g id="s4-2" data-name="s4">
                  <path id="s-4" data-name="s" d="M.5.12.712.81.165.383H.842L.294.81Z" transform="translate(-0.165 -0.12)" fill="#fff"/>
                  <path id="use11040-4" data-name="use11040" d="M.5.12.712.81.165.383H.842L.294.81Z" transform="translate(-0.165 1.216)" fill="#fff"/>
                  <path id="use11042-4" data-name="use11042" d="M.5.12.712.81.165.383H.842L.294.81Z" transform="translate(-0.165 2.552)" fill="#fff"/>
                  <path id="use11044-4" data-name="use11044" d="M.5.12.712.81.165.383H.842L.294.81Z" transform="translate(-0.165 3.887)" fill="#fff"/>
                </g>
                <path id="use11046-2" data-name="use11046" d="M.5.12.712.81.165.383H.842L.294.81Z" transform="translate(-0.165 5.223)" fill="#fff"/>
              </g>
              <g id="use11048-2" data-name="use11048" transform="translate(0.732 0.668)">
                <path id="s-5" data-name="s" d="M.5.12.712.81.165.383H.842L.294.81Z" transform="translate(-0.165 -0.12)" fill="#fff"/>
                <path id="use11040-5" data-name="use11040" d="M.5.12.712.81.165.383H.842L.294.81Z" transform="translate(-0.165 1.216)" fill="#fff"/>
                <path id="use11042-5" data-name="use11042" d="M.5.12.712.81.165.383H.842L.294.81Z" transform="translate(-0.165 2.552)" fill="#fff"/>
                <path id="use11044-5" data-name="use11044" d="M.5.12.712.81.165.383H.842L.294.81Z" transform="translate(-0.165 3.887)" fill="#fff"/>
              </g>
            </g>
            <g id="use11050" transform="translate(1.465)">
              <g id="s5-3" data-name="s5" transform="translate(0)">
                <g id="s4-3" data-name="s4">
                  <path id="s-6" data-name="s" d="M.5.12.712.81.165.383H.842L.294.81Z" transform="translate(-0.165 -0.12)" fill="#fff"/>
                  <path id="use11040-6" data-name="use11040" d="M.5.12.712.81.165.383H.842L.294.81Z" transform="translate(-0.165 1.216)" fill="#fff"/>
                  <path id="use11042-6" data-name="use11042" d="M.5.12.712.81.165.383H.842L.294.81Z" transform="translate(-0.165 2.552)" fill="#fff"/>
                  <path id="use11044-6" data-name="use11044" d="M.5.12.712.81.165.383H.842L.294.81Z" transform="translate(-0.165 3.887)" fill="#fff"/>
                </g>
                <path id="use11046-3" data-name="use11046" d="M.5.12.712.81.165.383H.842L.294.81Z" transform="translate(-0.165 5.223)" fill="#fff"/>
              </g>
              <g id="use11048-3" data-name="use11048" transform="translate(0.732 0.668)">
                <path id="s-7" data-name="s" d="M.5.12.712.81.165.383H.842L.294.81Z" transform="translate(-0.165 -0.12)" fill="#fff"/>
                <path id="use11040-7" data-name="use11040" d="M.5.12.712.81.165.383H.842L.294.81Z" transform="translate(-0.165 1.216)" fill="#fff"/>
                <path id="use11042-7" data-name="use11042" d="M.5.12.712.81.165.383H.842L.294.81Z" transform="translate(-0.165 2.552)" fill="#fff"/>
                <path id="use11044-7" data-name="use11044" d="M.5.12.712.81.165.383H.842L.294.81Z" transform="translate(-0.165 3.887)" fill="#fff"/>
              </g>
            </g>
          </g>
          <g id="use10733" transform="translate(5.859)">
            <g id="s5-4" data-name="s5" transform="translate(0)">
              <g id="s4-4" data-name="s4">
                <path id="s-8" data-name="s" d="M.5.12.712.81.165.383H.842L.294.81Z" transform="translate(-0.165 -0.12)" fill="#fff"/>
                <path id="use11040-8" data-name="use11040" d="M.5.12.712.81.165.383H.842L.294.81Z" transform="translate(-0.165 1.216)" fill="#fff"/>
                <path id="use11042-8" data-name="use11042" d="M.5.12.712.81.165.383H.842L.294.81Z" transform="translate(-0.165 2.552)" fill="#fff"/>
                <path id="use11044-8" data-name="use11044" d="M.5.12.712.81.165.383H.842L.294.81Z" transform="translate(-0.165 3.887)" fill="#fff"/>
              </g>
              <path id="use11046-4" data-name="use11046" d="M.5.12.712.81.165.383H.842L.294.81Z" transform="translate(-0.165 5.223)" fill="#fff"/>
            </g>
            <g id="use11048-4" data-name="use11048" transform="translate(0.732 0.668)">
              <path id="s-9" data-name="s" d="M.5.12.712.81.165.383H.842L.294.81Z" transform="translate(-0.165 -0.12)" fill="#fff"/>
              <path id="use11040-9" data-name="use11040" d="M.5.12.712.81.165.383H.842L.294.81Z" transform="translate(-0.165 1.216)" fill="#fff"/>
              <path id="use11042-9" data-name="use11042" d="M.5.12.712.81.165.383H.842L.294.81Z" transform="translate(-0.165 2.552)" fill="#fff"/>
              <path id="use11044-9" data-name="use11044" d="M.5.12.712.81.165.383H.842L.294.81Z" transform="translate(-0.165 3.887)" fill="#fff"/>
            </g>
          </g>
          <g id="use10735" transform="translate(7.324)">
            <g id="s4-5" data-name="s4" transform="translate(0)">
              <path id="s-10" data-name="s" d="M.5.12.712.81.165.383H.842L.294.81Z" transform="translate(-0.165 -0.12)" fill="#fff"/>
              <path id="use11040-10" data-name="use11040" d="M.5.12.712.81.165.383H.842L.294.81Z" transform="translate(-0.165 1.216)" fill="#fff"/>
              <path id="use11042-10" data-name="use11042" d="M.5.12.712.81.165.383H.842L.294.81Z" transform="translate(-0.165 2.552)" fill="#fff"/>
              <path id="use11044-10" data-name="use11044" d="M.5.12.712.81.165.383H.842L.294.81Z" transform="translate(-0.165 3.887)" fill="#fff"/>
            </g>
            <path id="use11046-5" data-name="use11046" d="M.5.12.712.81.165.383H.842L.294.81Z" transform="translate(-0.165 5.223)" fill="#fff"/>
          </g>
        </g>
      </g>
      <g id="g10763" transform="translate(0)">
        <g id="g10745" transform="translate(0.349 0)">
          <path id="path10741" d="M-30.858,19.29a21.358,21.358,0,0,1,2.251-1.082c-8.777-4.619-9.268-8.091-11.071-11.744,1.388,4.231,2.547,8.455,8.82,12.826Z" transform="translate(39.678 -6.463)" fill="#a80126" fill-rule="evenodd"/>
          <path id="path10743" d="M-37.9,8.928c3.344,2.8,6.246,4.789,8.387,5.4,2.117-1.13,9.12-1.744,8.968-.15a3.73,3.73,0,0,0-3.312-.118,9.825,9.825,0,0,1,1.938-.012,1.533,1.533,0,0,1-.453.34,5.144,5.144,0,0,1,1.547.553c.289-.028.478-.02.566.069a1.885,1.885,0,0,0-.824.712c1.946.055,4.019.036,4.237,2.089.614-1.818-.484-2.763-2.624-3.176a10.391,10.391,0,0,0-1.171-1.756c-5.849-.327-11.691-.724-17.26-3.946Z" transform="translate(42.15 -3.035)" fill="#a80126" fill-rule="evenodd"/>
        </g>
        <path id="path10747" d="M651.1,654.376v-3.542h2.371a.823.823,0,0,1-.374.33h-1.484v.932h1.324a.588.588,0,0,1-.3.264h-1.025v1.262a1.6,1.6,0,0,1-.513.754Z" transform="translate(-651.1 -634.337)" fill-rule="evenodd"/>
        <path id="path10749" d="M654.973,651.262v2.59h.673v-2.439a1.814,1.814,0,0,0-2.734,0v2.439h.609v-1.432H654a.547.547,0,0,0,.235-.207h-.7v-.942a1.082,1.082,0,0,1,1.442-.01Z" transform="translate(-648.578 -634.397)" fill-rule="evenodd"/>
        <path id="path10751" d="M658.3,653.844H655.57v-2.986h.683V653.6h2.4C658.556,653.691,658.5,653.813,658.3,653.844Z" transform="translate(-644.881 -634.304)" fill-rule="evenodd"/>
        <path id="path10753" d="M659,650.835v.586c-1.1,1.488.773,3.274,2.877,1.965l.159-.033c-1.3,1.473-6.083.277-3.035-2.518Z" transform="translate(-641.497 -634.337)" fill-rule="evenodd"/>
        <path id="path10755" d="M657.816,651.692v1.081c1.049-1.891,2.5-2.832,6.958-1.577C660.5,649.518,658.916,650.4,657.816,651.692Z" transform="translate(-641.756 -635.118)" fill-rule="evenodd"/>
        <path id="path10757" d="M611.341,123.9a1.716,1.716,0,0,0-1.782,1.739c.01,2.258,3.563,2.373,3.564,0A1.668,1.668,0,0,0,611.341,123.9Zm-.008.235c.529-.006,1.061.491,1.065,1.5.01,2.027-2.1,1.981-2.111,0C610.279,124.646,610.8,124.139,611.333,124.133Z" transform="translate(-586.982 -107.635)" fill-rule="evenodd"/>
        <path id="path10759" d="M663.731,651.218v2.691H663.2v-2.824l.533-.258,0,.122a2,2,0,0,1,1.545.565v2.422h-.517v-2.379c-.19-.317-.4-.4-1.027-.4Z" transform="translate(-634.266 -634.348)" fill-rule="evenodd"/>
        <path id="path10761" d="M608.955,126.147c-5.494.025-4.071,4.431-1.034,4.343a2.787,2.787,0,0,0,2.632-1.2c-.593,2.97-2.609,2.971-5.037,3.208a1.434,1.434,0,0,0-.576.564c4.121-.083,7.578-.816,7.477-4.014C612.346,126.808,610.849,126.139,608.955,126.147Zm-.082.533a1.465,1.465,0,1,1-1.809,1.426,1.654,1.654,0,0,1,1.809-1.426Z" transform="translate(-593.408 -104.506)" fill-rule="evenodd"/>
      </g>
    </g>
    <g id="g10855" transform="translate(7.92 345.27)">
      <g id="g10809" transform="translate(33.477 0)">
        <path id="path10767" d="M287.036,816.4l.075-15.318-2.541-3.736.075-4.035-2.018-3.811-.673-2.167-1.644-.6-1.644.149-.971.3-.9,2.391-.523,2.615-.075,2.242v2.391l.224,1.719-1.943,2.167v15.468l1.494.3Z" transform="translate(-274.482 -786.731)" fill="#fff" stroke="#040404" stroke-linecap="round" stroke-linejoin="round" stroke-width="0.2" fill-rule="evenodd"/>
        <path id="path10769" d="M275.112,794.945v15.376h11.056V795.007l-2.232-3.866h-5.284Z" transform="translate(-273.605 -780.595)" fill="none" stroke="#040404" stroke-linecap="square" stroke-linejoin="round" stroke-width="0.2" fill-rule="evenodd"/>
        <path id="path10771" d="M283.07,814.7V792.037l-1.849-3.7a4.8,4.8,0,0,0-5.6.74l.264,6.922" transform="translate(-272.898 -785.295)" fill="none" stroke="#040404" stroke-linecap="square" stroke-linejoin="round" stroke-width="0.2" fill-rule="evenodd"/>
        <path id="path10773" d="M276.692,791.185v19" transform="translate(-271.407 -780.534)" fill="none" stroke="#040404" stroke-linecap="square" stroke-linejoin="round" stroke-width="0.2" fill-rule="evenodd"/>
        <path id="path10775" d="M279.566,791.194l-1.8-.053-3.276,3.54V810.15l1.5.147" transform="translate(-274.466 -780.596)" fill="none" stroke="#040404" stroke-linecap="square" stroke-linejoin="round" stroke-width="0.2" fill-rule="evenodd"/>
        <path id="path10777" d="M277.779,794.869l-.053-3.8-2.061-2.642" transform="translate(-272.836 -784.376)" fill="none" stroke="#040404" stroke-linecap="square" stroke-linejoin="round" stroke-width="0.2" fill-rule="evenodd"/>
        <path id="path10779" d="M281.861,789.681l-.951-2.325a5.4,5.4,0,0,0-4.227-.264,20.686,20.686,0,0,0-1.215,11.307" transform="translate(-273.485 -786.639)" fill="none" stroke="#040404" stroke-linecap="square" stroke-linejoin="round" stroke-width="0.2" fill-rule="evenodd"/>
        <path id="path10781" d="M281.674,789.739a6.488,6.488,0,0,0-5.125-.053" transform="translate(-271.607 -783.316)" fill="none" stroke="#040404" stroke-linecap="round" stroke-linejoin="round" stroke-width="0.2" fill-rule="evenodd"/>
        <path id="path10783" d="M278.884,801.54l-3.754-4.13" transform="translate(-273.58 -771.874)" fill="#fff" stroke="#040404" stroke-linecap="round" stroke-linejoin="round" stroke-width="0.2" fill-rule="evenodd"/>
        <path id="path10785" d="M282.259,804.376l-7.136-9" transform="translate(-273.59 -774.71)" fill="#fff" stroke="#040404" stroke-linecap="round" stroke-linejoin="round" stroke-width="0.2" fill-rule="evenodd"/>
        <path id="path10787" d="M275.122,793.527l10.5,13.338" transform="translate(-273.591 -777.276)" fill="#fff" stroke="#040404" stroke-linecap="round" stroke-linejoin="round" stroke-width="0.2" fill-rule="evenodd"/>
        <path id="path10789" d="M275.56,792.277l9.9,12.666" transform="translate(-272.982 -779.015)" fill="#fff" stroke="#040404" stroke-linecap="round" stroke-linejoin="round" stroke-width="0.2" fill-rule="evenodd"/>
        <path id="path10791" d="M276.388,791.387l8,10.461" transform="translate(-271.83 -780.253)" fill="#fff" stroke="#040404" stroke-linecap="round" stroke-linejoin="round" stroke-width="0.2" fill-rule="evenodd"/>
        <path id="path10793" d="M277.685,791.168l4.876,6.258" transform="translate(-270.026 -780.558)" fill="#fff" stroke="#040404" stroke-linecap="round" stroke-linejoin="round" stroke-width="0.2" fill-rule="evenodd"/>
        <path id="path10795" d="M277.38,803.77,283,795.793" transform="translate(-270.45 -774.124)" fill="#fff" stroke="#040404" stroke-linecap="round" stroke-linejoin="round" stroke-width="0.2" fill-rule="evenodd"/>
        <path id="path10797" d="M281.017,797.6l-2.316,3.661" transform="translate(-268.613 -771.603)" fill="#fff" stroke="#040404" stroke-linecap="round" stroke-linejoin="round" stroke-width="0.2" fill-rule="evenodd"/>
        <path id="path10799" d="M275.832,806.154l9.25-12.08" transform="translate(-272.604 -776.515)" fill="#fff" stroke="#040404" stroke-linecap="round" stroke-linejoin="round" stroke-width="0.2" fill-rule="evenodd"/>
        <path id="path10801" d="M275.138,805.993l10.611-13.45" transform="translate(-273.569 -778.645)" fill="#fff" stroke="#040404" stroke-linecap="round" stroke-linejoin="round" stroke-width="0.2" fill-rule="evenodd"/>
        <path id="path10803" d="M275.138,802.546l9.266-10.91" transform="translate(-273.569 -779.906)" fill="#fff" stroke="#040404" stroke-linecap="round" stroke-linejoin="round" stroke-width="0.2" fill-rule="evenodd"/>
        <path id="path10805" d="M275.107,798.821l6.725-7.622" transform="translate(-273.612 -780.514)" fill="#fff" stroke="#040404" stroke-linecap="round" stroke-linejoin="round" stroke-width="0.2" fill-rule="evenodd"/>
        <path id="path10807" d="M274.489,792.6l1.466.3" transform="translate(-274.472 -778.563)" fill="#ccc" stroke="#040404" stroke-linecap="round" stroke-linejoin="round" stroke-width="0.2" fill-rule="evenodd"/>
      </g>
      <g id="g10853" transform="translate(12.628 29.74) rotate(180)">
        <path id="path10811" d="M12.554.075l.075,15.318-2.541,3.736.075,4.035L8.145,26.975l-.673,2.167-1.644.6-1.644-.149-.971-.3-.9-2.391-.523-2.615-.075-2.242V19.652l.224-1.719L0,15.767V.3L1.494,0Z" fill="#fff" stroke="#040404" stroke-linecap="round" stroke-linejoin="round" stroke-width="0.2" fill-rule="evenodd"/>
        <path id="path10813" d="M0,15.376V0H11.056V15.314L8.824,19.18H3.54Z" transform="translate(1.507 0.014)" fill="none" stroke="#040404" stroke-linecap="square" stroke-linejoin="round" stroke-width="0.2" fill-rule="evenodd"/>
        <path id="path10815" d="M7.45,0V22.667L5.6,26.366a4.8,4.8,0,0,1-5.6-.74L.264,18.7" transform="translate(2.722 0.331)" fill="none" stroke="#040404" stroke-linecap="square" stroke-linejoin="round" stroke-width="0.2" fill-rule="evenodd"/>
        <path id="path10817" d="M0,19V0" transform="translate(5.285 0.089)" fill="none" stroke="#040404" stroke-linecap="square" stroke-linejoin="round" stroke-width="0.2" fill-rule="evenodd"/>
        <path id="path10819" d="M5.072,19.1l-1.8.053L0,15.616V.147L1.5,0" transform="translate(0.028 0.039)" fill="none" stroke="#040404" stroke-linecap="square" stroke-linejoin="round" stroke-width="0.2" fill-rule="evenodd"/>
        <path id="path10821" d="M2.114,0,2.061,3.8,0,6.446" transform="translate(2.829 19.247)" fill="none" stroke="#040404" stroke-linecap="square" stroke-linejoin="round" stroke-width="0.2" fill-rule="evenodd"/>
        <path id="path10823" d="M6.663,8.718l-.951,2.325a5.4,5.4,0,0,1-4.227.264A20.686,20.686,0,0,1,.269,0" transform="translate(1.714 17.98)" fill="none" stroke="#040404" stroke-linecap="square" stroke-linejoin="round" stroke-width="0.2" fill-rule="evenodd"/>
        <path id="path10825" d="M5.125,0A6.488,6.488,0,0,1,0,.053" transform="translate(4.942 23.317)" fill="none" stroke="#040404" stroke-linecap="round" stroke-linejoin="round" stroke-width="0.2" fill-rule="evenodd"/>
        <path id="path10827" d="M3.754,0,0,4.13" transform="translate(1.55 0.075)" fill="#fff" stroke="#040404" stroke-linecap="round" stroke-linejoin="round" stroke-width="0.2" fill-rule="evenodd"/>
        <path id="path10829" d="M7.136,0,0,9" transform="translate(1.532 0.075)" fill="#fff" stroke="#040404" stroke-linecap="round" stroke-linejoin="round" stroke-width="0.2" fill-rule="evenodd"/>
        <path id="path10831" d="M0,13.338,10.5,0" transform="translate(1.531 0.151)" fill="#fff" stroke="#040404" stroke-linecap="round" stroke-linejoin="round" stroke-width="0.2" fill-rule="evenodd"/>
        <path id="path10833" d="M0,12.666,9.9,0" transform="translate(2.578 3.813)" fill="#fff" stroke="#040404" stroke-linecap="round" stroke-linejoin="round" stroke-width="0.2" fill-rule="evenodd"/>
        <path id="path10835" d="M0,10.461,8,0" transform="translate(4.558 8.145)" fill="#fff" stroke="#040404" stroke-linecap="round" stroke-linejoin="round" stroke-width="0.2" fill-rule="evenodd"/>
        <path id="path10837" d="M0,6.258,4.876,0" transform="translate(7.659 12.872)" fill="#fff" stroke="#040404" stroke-linecap="round" stroke-linejoin="round" stroke-width="0.2" fill-rule="evenodd"/>
        <path id="path10839" d="M0,0,5.623,7.977" transform="translate(6.93 0.094)" fill="#fff" stroke="#040404" stroke-linecap="round" stroke-linejoin="round" stroke-width="0.2" fill-rule="evenodd"/>
        <path id="path10841" d="M2.316,3.661,0,0" transform="translate(10.087 0.077)" fill="#fff" stroke="#040404" stroke-linecap="round" stroke-linejoin="round" stroke-width="0.2" fill-rule="evenodd"/>
        <path id="path10843" d="M0,0,9.25,12.08" transform="translate(3.228 0.101)" fill="#fff" stroke="#040404" stroke-linecap="round" stroke-linejoin="round" stroke-width="0.2" fill-rule="evenodd"/>
        <path id="path10845" d="M0,0,10.611,13.45" transform="translate(1.569 2.392)" fill="#fff" stroke="#040404" stroke-linecap="round" stroke-linejoin="round" stroke-width="0.2" fill-rule="evenodd"/>
        <path id="path10847" d="M0,0,9.266,10.91" transform="translate(1.569 7.1)" fill="#fff" stroke="#040404" stroke-linecap="round" stroke-linejoin="round" stroke-width="0.2" fill-rule="evenodd"/>
        <path id="path10849" d="M0,0,6.725,7.622" transform="translate(1.495 11.433)" fill="#fff" stroke="#040404" stroke-linecap="round" stroke-linejoin="round" stroke-width="0.2" fill-rule="evenodd"/>
        <path id="path10851" d="M0,.3,1.466,0" transform="translate(0.017 15.397)" fill="#ccc" stroke="#040404" stroke-linecap="round" stroke-linejoin="round" stroke-width="0.2" fill-rule="evenodd"/>
      </g>
    </g>
  </g>
</svg>
