<svg xmlns="http://www.w3.org/2000/svg" xmlns:xlink="http://www.w3.org/1999/xlink" width="20.666" height="254.323" viewBox="0 0 20.666 254.323">
  <defs>
    <linearGradient id="linear-gradient" x1="0.675" y1="-2.249" x2="1.619" y2="-2.249" gradientUnits="objectBoundingBox">
      <stop offset="0"/>
      <stop offset="1" stop-opacity="0"/>
    </linearGradient>
    <linearGradient id="linear-gradient-2" x1="89.663" y1="3.25" x2="90.621" y2="3.25" xlink:href="#linear-gradient"/>
  </defs>
  <g id="g24546" transform="translate(0.142 0.2)">
    <rect id="rect4678" width="20.25" height="175.376" transform="translate(0 45.778)" fill="#f7f7f7"/>
    <g id="g4369-6-6-9-5" transform="translate(0.647 46.261)">
      <rect id="rect3545-0-1-5-0" width="9.724" height="174.306" opacity="0.034" transform="translate(0 0.032)" stroke="rgba(255,255,255,0)" stroke-linecap="round" stroke-linejoin="round" stroke-width="0.4" fill="#fff"/>
      <rect id="rect3545-9-2-3-1-3" width="9.582" height="174.249" opacity="0.034" transform="translate(19.16 174.249) rotate(180)" stroke="rgba(255,255,255,0)" stroke-linecap="round" stroke-linejoin="round" stroke-width="0.4" fill="#fff"/>
    </g>
    <rect id="rect10914" width="20.29" height="38.571" transform="translate(0.073 65.892)" fill="#4d4d4d"/>
    <path id="path153" d="M94.993,928.154H115.26" transform="translate(-94.935 -882.276)" fill="none" stroke="#000" stroke-width="0.4"/>
    <path id="path155" d="M94.993,952.636H115.26" transform="translate(-94.935 -848.218)" fill="none" stroke="#000" stroke-width="0.4"/>
    <path id="path157" d="M94.993,936.493H115.26" transform="translate(-94.935 -870.675)" fill="none" stroke="#000" stroke-width="0.4"/>
    <path id="path159" d="M99.231,908.968v40.505" transform="translate(-89.039 -908.967)" fill="none" stroke="#000" stroke-width="0.4"/>
    <path id="path169" d="M108.493,1025.742h-11.7l.3-1.659.459-1.8.541-1.781.621-1.755.7-1.724.775-1.688.239-.82-.169-.234-.161-.243-.154-.251-.146-.259-.139-.268-.131-.276-.124-.285-.116-.293-.109-.3-.1-.311-.095-.32-.088-.329-.081-.338-.074-.347-.067-.356-.06-.366-.053-.375-.047-.385-.04-.394-.033-.4-.027-.413.18-.21h8.02l.215.175-.026.414-.033.4-.039.395-.046.385-.053.376-.06.367-.066.357-.073.348-.08.339-.087.33-.094.321-.1.312-.109.3-.116.294-.123.285-.131.277-.138.269-.145.26-.153.252-.161.243-.168.234.154.7.782,1.684.706,1.721.628,1.753.548,1.779.466,1.8.383,1.815Z" transform="translate(-92.429 -771.82)" fill="#333" stroke="#000" stroke-width="0.4"/>
    <path id="path171" d="M95.492,949.473h17.882V931.11l-1.788-8.811-5.326-12.094a1.968,1.968,0,0,0-3.655,0L97.28,922.3l-1.788,8.811Z" transform="translate(-94.241 -908.968)" fill="none" stroke="#000" stroke-width="0.4"/>
    <path id="path211" d="M114.067,925.907l1.192,5.373v175.1l-8.092,7.118a3.571,3.571,0,0,1-4.083,0l-8.092-7.118V931.28l1.192-5.373" transform="translate(-94.935 -885.402)" fill="none" stroke="#000" stroke-width="0.4"/>
    <path id="path517" d="M115.26,1001.38H94.993" transform="translate(-94.935 -780.407)" fill="none" stroke="#000" stroke-width="0.4"/>
    <path id="path845" d="M99.231,1004.63v7" transform="translate(-89.039 -775.886)" fill="none" stroke="#000" stroke-width="0.4"/>
    <path id="path847" d="M94.993,1001.38l6.107,14.762" transform="translate(-94.935 -780.407)" fill="none" stroke="#000" stroke-width="0.4"/>
    <path id="path849" d="M107.022,1001.38l-6.107,14.762" transform="translate(-86.697 -780.407)" fill="none" stroke="#000" stroke-width="0.4"/>
    <path id="path7168" d="M99.447,928.913c0-10.809.05-19.65.112-19.647.406.017.954,1.081,3.36,6.522l2.7,6.1.87,4.185.87,4.184,0,9.154,0,9.154H99.446V928.913Z" transform="translate(-88.74 -908.553)" fill="#f2f2f2"/>
    <path id="path7170" d="M95.7,939.608v-9.029l.862-4.253.862-4.253,2.694-6.127c1.482-3.37,2.767-6.206,2.856-6.3a1.345,1.345,0,0,1,.643-.385c.055,0,.078,5.992.078,19.689v19.69h-8v-9.029Z" transform="translate(-93.954 -908.565)" fill="#f2f2f2"/>
    <path id="path7180" d="M95.252,930.444c0-.072.213-1.072.468-2.223l.464-2.092,8.572-.019,8.572-.019.04.168c.148.622.934,4.2.934,4.254,0,.034-4.287.061-9.527.061-9.025,0-9.527-.007-9.523-.131Z" transform="translate(-94.574 -885.147)" fill="#f2f2f2"/>
    <path id="path12008" d="M103.573,1008.683c-.652-.242-.6-.2-4.552-3.79l-3.742-3.4,4.685-.033c2.577-.024,6.782-.024,9.345,0l4.66.033-3.81,3.462a36.774,36.774,0,0,1-4.331,3.671,3.711,3.711,0,0,1-2.255.055Z" transform="translate(-94.538 -780.322)" fill="#efefef"/>
    <g id="g4369-6-6-9" transform="translate(0.468 46.264)">
      <rect id="rect3545-0-1-5" width="9.813" height="174.281" fill="url(#linear-gradient)" transform="translate(0 0.032)" stroke-linecap="round" stroke-linejoin="round" stroke-width="0.4" opacity="0.034" stroke="rgba(255,255,255,0)"/>
      <rect id="rect3545-9-2-3-1" width="9.67" height="174.224" fill="url(#linear-gradient-2)" transform="translate(19.336 174.224) rotate(180)" stroke-linecap="round" stroke-linejoin="round" stroke-width="0.4" opacity="0.034" stroke="rgba(255,255,255,0)"/>
    </g>
    <g id="g13172" transform="translate(5.718 130.912)">
      <path id="path13174" d="M97.682,490.574H92.905l-.177.132v4.25h1.322v-1.594l.126-.113h3.506c.885,0,1.3-.238,1.3-.849v-.976c0-.612-.415-.85-1.3-.85m0,1.571c0,.288-.19.348-.605.348H94.191l-.141-.137v-.91l.126-.115h2.9c.415,0,.605.059.605.348v.467Z" transform="translate(-92.032 -480.476)" fill="#005288"/>
      <path id="polyline13176" d="M8.271,1.911,9.409,3.578l-.063.161H6.829l-.642.79H9.933l.26.158.582.8h1.513L8.97,1.053" transform="translate(-5.387 17.852)" fill="#005288"/>
      <g id="g13178" transform="translate(0.832 38.385)">
        <path id="polyline13180" d="M14.134,3.739V2.559l.136-.118H16.8V1.691H12.789V4.6h5.919V3.854H14.276" transform="translate(-12.789 -0.219)" fill="#005288"/>
        <rect id="rect13182" width="5.981" height="0.826" transform="translate(0 0)" fill="#005288"/>
      </g>
      <path id="path13184" d="M94.2,499.037h4.819c-.074-.613-.454-.783-1.419-.783H94.153c-1.088,0-1.436.212-1.436,1.036V501.6c0,.824.347,1.037,1.436,1.037H97.6c.979,0,1.353-.184,1.379-.819H94.2l-.142-.133v-2.559" transform="translate(-92.047 -469.791)" fill="#005288"/>
      <path id="path13186" d="M97.685,488.059H94.18l-.1-.114v-.75l.1-.079h4.726l.065-.158c-.161-.414-.578-.607-1.352-.607H94.335c-1.088,0-1.435.212-1.435,1.036v.484c0,.825.348,1.037,1.435,1.037h3.5l.11.1v.784l-.09.122h-4v0H92.8s-.12.06-.115.088c.089.576.482.739,1.422.739h3.575c1.087,0,1.446-.212,1.446-1.037v-.6c0-.823-.358-1.035-1.446-1.035" transform="translate(-92.087 -486.351)" fill="#005288"/>
      <path id="path13188" d="M94.574,506.653H92.607l-.107.2,2.185,1.593c.414-.24.864-.483,1.354-.722" transform="translate(-92.35 -458.107)" fill="#005288"/>
      <path id="path13190" d="M94.1,508.422l1.921,1.4h1.992l.083-.186-2.868-2.1q-.571.419-1.127.884" transform="translate(-90.118 -456.876)" fill="#005288"/>
      <path id="path13192" d="M94.368,512.19h-1.78l-.15-.236a24.933,24.933,0,0,1,13.932-6.12,22.269,22.269,0,0,0-12,6.356" transform="translate(-92.437 -459.246)" fill="#005288"/>
    </g>
  </g>
</svg>
